<?xml version="1.0" encoding="UTF-8"?>
<svg width="300px" height="130px" viewBox="0 0 300 130" version="1.1" xmlns="http://www.w3.org/2000/svg" xmlns:xlink="http://www.w3.org/1999/xlink">
    <!-- Generator: Sketch 61 (89581) - https://sketch.com -->
    <title>case2 copy 2</title>
    <desc>Created with Sketch.</desc>
    <defs>
        <rect id="path-1" x="0" y="0" width="300" height="133"></rect>
        <path d="M72.5,39 C94.8675324,39 113,56.5064495 113,78.1017493 C113,78.7381537 112.984253,79.3710071 112.953114,79.9999661 L32.0468861,79.9999661 C32.0157473,79.3710071 32,78.7381537 32,78.1017493 C32,56.5064495 50.1324676,39 72.5,39 Z" id="path-3"></path>
    </defs>
    <g id="case2-copy-2" stroke="none" stroke-width="1" fill="none" fill-rule="evenodd">
        <g id="Group-14">
            <rect id="Rectangle" x="0" y="0" width="300" height="130"></rect>
        </g>
        <g id="3-copy-6">
            <mask id="mask-2" fill="white">
                <use xlink:href="#path-1"></use>
            </mask>
            <g id="Mask"></g>
            <g id="Group-17" mask="url(#mask-2)">
                <g transform="translate(155.000000, 31.000000)">
                    <path d="M19.4799993,14 L126.520001,14 C130.098806,14 133,16.9011945 133,20.4799993 L133,94 L133,94 L13,94 L13,20.4799993 C13,16.9011945 15.9011945,14 19.4799993,14 Z" id="Rectangle-Copy" stroke="none" fill="#2A2793" fill-rule="nonzero"></path>
                    <rect id="Rectangle-Copy-3" stroke="none" fill="#2A2793" fill-rule="nonzero" x="42" y="6" width="62" height="8"></rect>
                    <rect id="Rectangle-Copy-8" stroke="none" fill="#1B2653" fill-rule="nonzero" x="39" y="0" width="68" height="6"></rect>
                    <rect id="Rectangle-16-Copy-4" stroke="none" fill="#1B2653" fill-rule="evenodd" x="24" y="24" width="97" height="56" rx="3.23999964"></rect>
                    <path d="M24,74 L121,74 L121,76.7600004 C121,78.5494028 119.549403,80 117.76,80 L27.2399996,80 C25.4505972,80 24,78.5494028 24,76.7600004 L24,74 L24,74 Z" id="Rectangle-Copy-12" stroke="none" fill="#0F2959" fill-rule="nonzero"></path>
                    <mask id="mask-4" fill="white">
                        <use xlink:href="#path-3"></use>
                    </mask>
                    <use id="Combined-Shape-Copy-2" stroke="none" fill="#FFFFFF" fill-rule="evenodd" xlink:href="#path-3"></use>
                    <path d="M72.5,47 C90.4492544,47 105,61.0503581 105,78.3823531 C105,78.9249935 104.985737,79.4644172 104.957553,80.0002936 L40.0424469,80.0002936 C40.014263,79.4644172 40,78.9249935 40,78.3823531 C40,61.0503581 54.5507456,47 72.5,47 Z" id="Combined-Shape-Copy-2" stroke="none" fill="#F5F9FD" fill-rule="evenodd"></path>
                    <path d="M68.396269,80.9894882 C69.6007059,82.2587085 71.6415354,82.3438207 72.9545893,81.1795914 C74.2676433,80.0153622 74.3556948,78.0426616 73.151258,76.7734412 C59.5214526,64.4687964 52.4797374,58.5530783 52.0261122,59.0262869 C51.572487,59.4994955 57.0292059,66.8205626 68.396269,80.9894882 Z" id="Path-4" stroke="none" fill="#FF8100" fill-rule="nonzero"></path>
                    <rect id="Rectangle-Copy-13" stroke="none" fill="#E4F2FE" fill-rule="nonzero" x="25" y="84" width="33" height="4"></rect>
                    <rect id="Rectangle-Copy-14" stroke="none" fill="#E4F2FE" fill-rule="nonzero" x="87" y="84" width="33" height="4"></rect>
                    <circle id="Oval-Copy-34" stroke="none" fill="#0F2959" fill-rule="evenodd" cx="73" cy="81" r="7"></circle>
                    <path d="M108.274265,48.0001903 L113.000997,54.2287473 C106.073812,60.0289074 101.676265,68.6915339 101.676265,78.3697166 C101.676265,78.7340696 101.682498,79.0969833 101.694863,79.4583591 L101.717999,79.999257 L94.0470886,79.9997958 C94.0165964,79.3696732 94.0011761,78.7356488 94.0011761,78.0980667 C94.0011761,66.0015665 99.5517695,55.1856958 108.274265,48.0001903 Z" id="Combined-Shape" stroke="none" fill="#E95F5F" fill-rule="evenodd" transform="translate(103.500588, 64.000407) scale(-1, 1) translate(-103.500588, -64.000407) "></path>
                    <path d="M0,94 L145,94 C145,94 145,94 145,94 C144.908428,99.5493464 140.38371,104.000016 134.833608,104 L10.1663919,104 C4.61629005,104.000016 0.0915718562,99.5493464 0,94 C0,94 0,94 0,94 Z" id="Path" stroke="none" fill="#1B2653" fill-rule="evenodd"></path>
                    <circle id="Oval-Copy-36" stroke="none" fill="#7975F2" fill-rule="evenodd" cx="111.5" cy="33.5" r="4.5"></circle>
                    <circle id="Oval-Copy-37" stroke="none" fill="#FF8100" fill-rule="evenodd" cx="47" cy="32" r="2"></circle>
                    <rect id="Rectangle-Copy-9" stroke="none" fill="#7975F2" fill-rule="nonzero" x="29" y="29" width="14" height="4"></rect>
                    <rect id="Rectangle-Copy-10" stroke="none" fill="#7975F2" fill-rule="nonzero" x="29" y="37" width="14" height="4"></rect>
                    <path d="M84.9596128,38.9209967 C86.6083014,38.0398124 87.2136471,37.0916564 87.9983394,35.8028078 C89.805488,32.8346964 87.5066593,26.4216904 83.6056454,31.2260857 C80.6617273,34.8516349 89.4841653,39.0657523 94.7543936,37.6769926 C97.6444171,36.9154146 104.728003,30.9778817 99.4799077,29.3604972 C94.1678802,27.7233787 92.8281284,35.0883521 97.4560961,36.6382169 C100.761134,37.7450444 102.998327,37.2038975 104.167676,35.0147764" id="Stroke-232-Copy-2" stroke="#3935B2" stroke-width="1.5" fill="none" stroke-linecap="round" stroke-linejoin="round" transform="translate(93.593253, 34.022791) rotate(-345.000000) translate(-93.593253, -34.022791) "></path>
                </g>
            </g>
            <g mask="url(#mask-2)">
                <g transform="translate(0.000000, -4.000000)">
                    <path d="M137.655256,110.912658 C133.488944,109.47898 133.144299,103.613372 137.655256,100.270887 C139.771766,98.702933 142.776986,99.5706249 144.030493,97.6353575 C145.857945,94.8146094 143.976295,92.7124855 147.506126,90.103225 C152.222759,86.6162624 154.8611,91.3221636 157.915654,87.3013495 C161.259961,82.900151 169.45987,70.3896764 180.118154,77.7932077 C185.74087,81.6983635 183.450649,91.5135671 178.418555,95.2418564 C174.774073,97.9421643 171.194908,95.3694375 167.90063,98.4202269 C165.99466,100.185896 167.83045,104.241331 164.723087,106.661292 C157.867015,112.000891 157.397297,107.17557 153.98837,108.754235 C148.963224,111.081363 146.149782,120.384521 138.172919,111.893713 L137.655256,110.912658 Z" id="Fill-3" stroke="none" fill="#BCBAFF" fill-rule="evenodd"></path>
                    <path d="M157.482733,62.9779141 C148.712105,62.4002621 148.15355,65.0688514 144.95405,69.8432065 C142.828379,73.0155682 138.2452,74.6106067 136.352432,77.6507593 C134.55997,80.5300958 137.321144,87.2560274 141.868597,85.7949039 C143.762053,85.1866109 146.042993,82.2774207 147.873928,81.6892052 C150.102654,80.973111 153.355055,81.9441751 155.76447,80.9488344 C163.111571,77.9136027 167.507878,68.7600107 159.604969,64.1893822 L157.482733,62.9779141 Z" id="Fill-4" stroke="none" fill="#BCBAFF" fill-rule="evenodd"></path>
                    <path d="M132.999998,122.399998 C138.537148,103.973576 157.438321,93.4251139 174.299997,83.8999984" id="Stroke-5" stroke="#1B2653" stroke-width="1.5" fill="none" stroke-linecap="round" stroke-linejoin="round"></path>
                    <path d="M155.399998,69.8999986 C140.372661,77.4391476 131.164635,93.2817438 128.518939,108.662361 C127.895345,112.28628 127.399998,118.413565 127.399998,123.099998" id="Stroke-6" stroke="#1B2653" stroke-width="1.5" fill="none" stroke-linecap="round" stroke-linejoin="round"></path>
                    <path d="M108.423474,153.899997 C104.314417,147.14248 99.3857756,123.108095 101.179098,122.042748 C102.184863,121.445391 141.399998,121.591406 141.399998,122.777933 C141.399998,123.829047 140.007304,141.736467 133.460831,153.654984 L108.423474,153.899997 Z" id="Fill-9" stroke="none" fill="#FF8100" fill-rule="evenodd"></path>
                    <path d="M91.1285423,56.1586188 C84.9553423,57.883347 83.5477226,67.058605 88.00236,72.714066 C89.3902049,74.4760138 94.2742365,74.5168033 95.1325652,76.6961659 C96.3402038,79.7625845 94.0305671,82.6620768 95.1017534,85.3818837 C96.6410952,89.290536 101.465014,88.6026016 102.40842,90.5197082 C103.567312,92.8729385 101.197628,95.4765251 103.158021,98.1312804 C107.639857,104.200256 115.150972,100.982579 118.521218,95.2769408 C122.8283,87.9867925 114.225304,84.8236559 110.464819,81.3858347 C108.239668,79.3514501 111.41808,75.9067535 110.921412,73.889954 C110.131079,70.6777642 107.685187,70.6101343 106.064447,68.1411464 C104.604007,65.91597 106.538778,64.2972813 104.17435,59.409747 C102.070082,55.0608722 94.7427861,56.0571409 92.5503524,55.8999988 L91.1285423,56.1586188 Z" id="Fill-10" stroke="none" fill="#BCBAFF" fill-rule="evenodd"></path>
                    <path d="M97.2999983,66.3999987 C108.460109,84.5562104 119.119964,102.258373 115.470137,119.599998" id="Stroke-11" stroke="#1B2653" stroke-width="1.5" fill="none" stroke-linecap="round" stroke-linejoin="round"></path>
                    <path d="M104.043283,3.30671546 C103.38969,43.5147687 103.57968,52.757569 103.84861,53.3562405 C103.991103,53.6739762 159.456229,54.2894448 159.50172,53.094474 C159.819485,44.731281 159.341164,7.07755076 158.434697,0.599999785 L104.043283,3.30671546 Z" id="Fill-12" stroke="none" fill="#D6E4F2" fill-rule="evenodd"></path>
                    <path d="M158.956849,0.599999785 C159.386293,3.90902793 159.470418,7.24564731 159.599998,10.5713502 C155.716008,10.6928715 157.264855,10.6645605 152.686158,10.700909 C145.610852,10.7571711 138.537582,10.7833228 131.462956,10.9255975 C122.170554,11.1125581 112.884937,11.4363952 103.599998,11.7999996 C103.758072,5.06522041 103.694978,8.01712207 103.79742,2.9445945 L158.956849,0.599999785 Z" id="Fill-13" stroke="none" fill="#1B2653" fill-rule="evenodd"></path>
                    <path d="M133.164785,14.5999995 C133.264067,17.6208494 132.748616,24.2115533 133.164785,24.8998323 C133.390549,25.2741852 142.708102,24.9989155 143.365675,25.0493642 C143.59484,25.0668782 143.486718,16.4683449 143.365675,14.5999995 L133.164785,14.5999995 Z" id="Fill-14" stroke="none" fill="#FFFFFF" fill-rule="evenodd"></path>
                    <g id="Group-2" stroke="none" stroke-width="1" fill="none" fill-rule="evenodd" transform="translate(30.799999, 19.499999)">
                        <path d="M36.5910188,26.1634216 C37.4875652,31.1971187 43.7886463,42.6907747 36.5910188,46.2550721 C33.3350514,47.867455 29.8959609,46.5863191 26.9587123,47.5559914 C25.1889101,48.1402803 27.4270737,55.3025856 25.7911203,56.5177292 C22.035349,59.3076172 15.0752867,58.6421236 10.7588646,58.1077575 C9.17888157,57.9121376 -1.22616674,59.2878338 0.119817486,57.2753549 C2.36118363,53.9241039 6.51449805,45.2048378 8.00503019,42.7444112 C10.4999739,38.6259643 6.03616526,31.1818348 8.42375334,26.4524593 C13.4803831,16.436202 31.5440692,16.6208947 36.8828804,25.8743126 L36.5910188,26.1634216 Z" id="Fill-16" fill="#D6E4F2"></path>
                        <path d="M8.03427709,41.8442189 C7.07667449,31.3731271 0.037212808,22.4120899 6.5746865,11.9518077 C8.40460569,9.02390225 10.3214932,6.36895777 13.4345794,4.9458096 C20.4427354,1.74193655 26.2288729,6.31011332 33.1384306,5.25714116 C39.5521445,4.27983639 42.6909774,-2.15081754 49.923247,0.742153481 C55.6292185,3.02463116 57.6777654,9.57605224 55.0316312,15.2212544 C45.9435494,34.6098585 30.5138739,21.7235668 22.109397,23.5166047 C19.5122693,24.0706875 18.1920182,27.4811604 17.7362573,30.0257179 C16.5466416,36.6663363 15.3419582,17.5466126 9.40916681,27.4485884 C7.27899108,31.0038817 17.2078643,32.6815214 8.18019958,42.3112521 L8.03427709,41.8442189 Z" id="Fill-18" fill="#1B2653"></path>
                        <path d="M17.447222,44.0865493 C19.5896543,44.4875 21.6131033,45.3525541 23.6653834,46.0556562 C24.8673641,46.4761141 26.0705889,46.9150267 27.3520382,47.0132645 L27.1690995,47.0559278 C27.0730201,47.1160633 26.943719,47.1438506 26.880788,47.2363345 C26.1044691,48.3778579 26.5052514,50.7336008 26.5781342,51.9804493 L26.4615656,52.0698457 C25.7407869,52.3024588 17.01234,45.1399394 17.3626311,44.1224763 L17.447222,44.0865493 Z" id="Fill-39" fill="#AEC7E0"></path>
                    </g>
                    <path d="M71.4767392,73.0620821 C69.774938,72.988944 16.5586461,66.8450726 2.49198605,80.6276346 C-3.84601335,86.8376091 3.71125018,115.287426 5.34208604,123.276941 C6.25232954,127.736179 11.2983219,147.264135 12.3377114,148.409591 C13.0430578,149.186899 23.6222286,148.97306 27.8251143,148.97306 C43.8920675,148.97306 58.2818318,146.378646 74.2618901,146.378646 C75.9276617,146.378646 81.8635241,146.800352 83.0712342,145.617067 C85.6230472,143.116763 87.3879587,123.276941 88.3014217,120.653973 C88.6872102,119.546199 107.484144,140.758358 116.753936,128.10041 C126.023727,115.442461 131.843157,70.9607525 132.299998,68.4421659 C127.251066,63.2679394 123.012182,55.8999988 121.186089,55.8999988 C120.882538,55.8999988 115.087822,75.1840845 114.421924,77.5813172 C112.880923,83.1280705 105.82951,108.578493 105.82951,107.71371 C105.82951,107.71371 98.0283111,98.3838821 97.3786158,97.36539 C91.3990666,87.9913603 88.2368695,84.7170669 84.8609558,80.6334751 C81.5871147,76.6733952 78.0033642,73.3424893 71.4767392,73.0620821 Z" id="Fill-19" stroke="none" fill="#1B2653" fill-rule="evenodd"></path>
                    <path d="M37.9118182,141.368874 C38.2280792,143.069069 38.398573,150.07371 39.5176397,150.125169 C46.7580212,150.457989 76.9123728,150.58531 76.8938805,149.942547 C76.7031432,143.319192 79.2116571,107.344582 76.2294171,103.527263 C59.8683195,103.419373 46.6268236,103.666503 36.3999994,103.666503 L37.9118182,141.368874 Z" id="Fill-32" stroke="none" fill="#D6E4F2" fill-rule="evenodd"></path>
                    <path d="M54.7644179,125.899998 C46.3221391,125.952071 49.4460005,142.939033 56.7412449,139.42014 C61.7960134,136.982029 62.8107438,127.067013 56.5891582,125.899998 L54.7644179,125.899998 Z" id="Fill-36" stroke="none" fill="#AEC7E0" fill-rule="evenodd"></path>
                    <path d="M17.0654607,90.8999982 C18.8015967,90.9240517 20.8326415,90.8855137 21.8657365,92.4854297 L22.3811329,93.8277703 C23.8384767,97.9945253 28.7359946,128.729283 30.454321,129.736448 C32.2329157,130.77894 37.8260257,124.884399 39.04277,123.695752 C44.8819646,117.991607 64.0150799,98.2112687 70.9919928,96.8481516 C74.910454,96.0825697 78.6884019,98.8129985 80.7828978,101.882077 C83.8070845,106.313485 80.0213491,111.444214 77.347464,114.802458 C65.5377033,127.746041 40.9547678,148.999997 37.4945495,148.999997 C21.1255865,148.999997 14.9865397,148.481897 14.9559992,148.416946 C12.4284512,143.046207 8.92841511,128.001453 8.02682705,123.597768 C6.01054461,113.619709 3.05962806,103.657314 2.79999995,93.4281682 C6.59975279,92.8526546 10.2853343,91.7210276 14.0947707,91.1902128 C15.0799896,91.0529049 16.0752307,90.9967364 17.0654607,90.8999982 Z" id="Fill-37" stroke="none" fill="#1B2653" fill-rule="evenodd"></path>
                    <path d="M132.999998,39.9496452 C133.236324,42.8709334 133.069465,49.374851 133.035413,50.1549106 C133.016343,50.59102 142.719329,49.903189 143.396978,49.9217041 C143.632623,49.9280838 143.418091,41.604004 143.211731,39.7999991 L132.999998,39.9496452 Z" id="Fill-64" stroke="none" fill="#FFFFFF" fill-rule="evenodd"></path>
                    <path d="M24.4999996,93.6999982 C30.0947407,109.353143 31.7907699,113.082522 35.6999994,125.899998" id="Stroke-68" stroke="#3935B2" stroke-width="1.5" fill="none" stroke-linecap="round" stroke-linejoin="round"></path>
                    <path d="M120.406165,39.6929765 C120.511693,42.6546068 120.400683,48.283889 120.399998,49.271461 C120.399313,49.7128017 130.078444,49.550106 130.763692,49.5999991 C131.001473,49.617274 130.881555,40.9317836 130.754784,39.0999991 L120.406165,39.6929765 Z" id="Fill-72" stroke="none" fill="#FFFFFF" fill-rule="evenodd"></path>
                    <path d="M118.299998,39.863081 C115.291133,40.0654793 108.933772,39.6489392 108.230966,39.863081 C107.801434,39.9939572 107.829261,49.4605525 107.799998,50.1642421 C107.790018,50.4089452 116.441308,50.2837993 118.299998,50.095479 L118.299998,39.863081 Z" id="Fill-73" stroke="none" fill="#FFFFFF" fill-rule="evenodd"></path>
                    <path d="M145.599998,14.5999995 C145.711698,17.561747 145.599998,24.2188599 145.599998,24.9498136 C145.599998,25.3912606 155.282668,24.7140153 155.998275,24.7643582 C156.24762,24.781817 155.976656,16.4318362 155.843335,14.5999995 L145.599998,14.5999995 Z" id="Fill-88" stroke="none" fill="#FFFFFF" fill-rule="evenodd"></path>
                    <path d="M121.105936,15.8139133 C121.196796,18.3806595 121.100592,23.2593708 121.099998,24.1152665 C121.099998,24.4977617 129.487545,24.3567589 130.081396,24.3999994 C130.288056,24.4149711 130.184132,16.8875461 130.074269,15.2999995 L121.105936,15.8139133 Z" id="Fill-89" stroke="none" fill="#FFFFFF" fill-rule="evenodd"></path>
                    <path d="M118.299998,14.6630814 C115.290419,14.8654797 108.933059,14.4489396 108.230967,14.6630814 C107.801435,14.7939577 107.829262,24.2605529 107.799998,24.9642425 C107.789305,25.2089457 116.440595,25.0837997 118.299998,24.8954794 L118.299998,14.6630814 Z" id="Fill-90" stroke="none" fill="#FFFFFF" fill-rule="evenodd"></path>
                    <path d="M118.299998,27.3091862 C115.339645,27.5039046 108.760614,27.2452559 107.971748,27.1999993 C107.530292,27.1747896 108.082639,36.8834089 108.053863,37.5606341 C108.044037,37.7961344 116.471008,37.6996603 118.299998,37.5184224 L118.299998,27.3091862 Z" id="Fill-91" stroke="none" fill="#FFFFFF" fill-rule="evenodd"></path>
                    <path d="M130.199998,26.4999993 C127.72255,26.6594203 121.919697,26.5394923 121.259643,26.5028375 C120.890419,26.4824268 121.280588,34.9217123 121.256651,35.4732845 C121.248273,35.6650728 128.666254,35.618575 130.197006,35.4704464 L130.199998,26.4999993 Z" id="Fill-92" stroke="none" fill="#FFFFFF" fill-rule="evenodd"></path>
                    <path d="M156.033686,36.9999993 C156.309616,33.4812202 155.635196,28.5563998 155.635196,26.6848088 C155.635196,26.2562854 146.339837,26.7108088 145.659254,26.6847407 C145.422351,26.6756884 145.959833,35.2264186 146.146754,36.9993866 L156.033686,36.9999993 Z" id="Fill-93" stroke="none" fill="#FFFFFF" fill-rule="evenodd"></path>
                    <path d="M144.199998,26.6356722 C139.999998,26.6356722 134.651407,26.5452566 133.863973,26.4999993 C133.424411,26.4747216 134.010961,36.1834349 133.982263,36.8606666 C133.972464,37.0961012 142.136572,36.9996942 143.959918,36.8183864 L144.199998,26.6356722 Z" id="Fill-94" stroke="none" fill="#FF8100" fill-rule="evenodd"></path>
                    <path d="M121.099998,56.076951 C122.327803,52.26692 124.229763,48.0951058 125.666443,44.3435528 C127.286556,40.1105317 130.943193,28.5999993 136.846567,28.5999993 C137.708842,28.5999993 138.496807,29.0398832 138.787356,29.8929459 C140.390064,34.6032768 134.25974,38.9755403 135.215741,43.6590363 C135.719182,46.1234255 142.878478,50.0255916 143.880672,52.849425 C146.043725,58.9424986 136.682547,66.1600375 131.90522,68.4999986 L121.099998,56.076951 Z" id="Fill-95" stroke="none" fill="#AEC7E0" fill-rule="evenodd"></path>
                    <path d="M156.099998,39.9091862 C153.139644,40.1039052 146.560614,39.8452558 145.771747,39.7999991 C145.330291,39.7747893 145.882638,49.4834352 145.853863,50.1606623 C145.844037,50.3960952 154.271007,50.2996889 156.099998,50.1184505 L156.099998,39.9091862 Z" id="Fill-96" stroke="none" fill="#FFFFFF" fill-rule="evenodd"></path>
                </g>
            </g>
        </g>
    </g>
</svg>