<?xml version="1.0" encoding="UTF-8"?>
<svg width="300px" height="130px" viewBox="0 0 300 130" version="1.1" xmlns="http://www.w3.org/2000/svg" xmlns:xlink="http://www.w3.org/1999/xlink">
    <!-- Generator: Sketch 61 (89581) - https://sketch.com -->
    <title>case1</title>
    <desc>Created with Sketch.</desc>
    <g id="case1" stroke="none" stroke-width="1" fill="none" fill-rule="evenodd">
        <g id="Group-14">
            <rect id="Rectangle" x="0" y="0" width="300" height="130"></rect>
            <g id="Group-5" transform="translate(3.000000, 14.000000)">
                <g id="Group" transform="translate(67.576103, 6.659041)">
                    <rect id="Rectangle-Copy" fill="#1EC794" fill-rule="nonzero" x="0" y="0" width="47.7007785" height="36.783274" rx="3.17519953"></rect>
                    <rect id="Rectangle-16-Copy-4" fill="#13A77A" x="14.151231" y="10.6227559" width="29.7218509" height="22.2969392" rx="1.58759977"></rect>
                    <path d="M-2.68585142e-13,7.13468677 L11.4365525,7.13468677 L11.4365525,36.7248614 L3.17519953,36.7248614 C1.42158525,36.7248614 -2.68814476e-13,35.3032761 -2.68585142e-13,33.5496619 L-2.68585142e-13,7.13468677 L-2.68585142e-13,7.13468677 Z" id="Rectangle-16-Copy-5" fill="#111B42"></path>
                    <rect id="Rectangle" fill="#1B2653" fill-rule="nonzero" x="2.22603633" y="9.67146429" width="7.15511677" height="1.26838876"></rect>
                    <rect id="Rectangle-Copy-8" fill="#1B2653" fill-rule="nonzero" x="2.22603633" y="26.7947125" width="7.15511677" height="1.26838876"></rect>
                    <rect id="Rectangle-Copy-9" fill="#1B2653" fill-rule="nonzero" x="2.22603633" y="29.6485873" width="7.15511677" height="1.26838876"></rect>
                    <rect id="Rectangle-Copy-10" fill="#1B2653" fill-rule="nonzero" x="2.22603633" y="32.502462" width="5.08808304" height="1.26838876"></rect>
                    <rect id="Rectangle-Copy-3" fill="#2B3B67" fill-rule="nonzero" x="2.22603633" y="15.3792137" width="7.15511677" height="1.26838876"></rect>
                    <rect id="Rectangle-Copy-4" fill="#2B3B67" fill-rule="nonzero" x="2.22603633" y="18.2330884" width="7.15511677" height="1.26838876"></rect>
                    <rect id="Rectangle-Copy-5" fill="#2B3B67" fill-rule="nonzero" x="2.22603633" y="21.0869631" width="5.40608823" height="1.26838876"></rect>
                    <rect id="Rectangle-Copy-2" fill="#2B3B67" fill-rule="nonzero" x="2.22603633" y="12.525339" width="4.45207266" height="1.26838876"></rect>
                    <rect id="Rectangle-Copy-6" fill="#2B3B67" fill-rule="nonzero" x="2.22603633" y="23.9408378" width="2.22603633" height="1.26838876"></rect>
                    <rect id="Rectangle-Copy-7" fill="#1B2653" fill-rule="nonzero" x="5.40608823" y="23.9408378" width="2.22603633" height="1.26838876"></rect>
                    <polyline id="Path-17" stroke="#FFFFFF" stroke-width="1.27007981" stroke-linecap="square" points="23.2975887 18.0209459 18.6033036 22.0851494 23.8100787 26.1493528"></polyline>
                    <polyline id="Path-17-Copy" stroke="#FFFFFF" stroke-width="1.27007981" stroke-linecap="square" transform="translate(36.827017, 22.085149) scale(-1, 1) translate(-36.827017, -22.085149) " points="38.917914 18.0209459 34.223629 22.0851494 39.4304041 26.1493528"></polyline>
                    <line x1="31.2423274" y1="17.8935104" x2="27.2812621" y2="26.0398235" id="Path-18" stroke="#FFFFFF" stroke-width="1.27007981" stroke-linecap="square"></line>
                    <path d="M3.17519953,0 L44.525579,0 C46.2791932,-7.66222927e-16 47.7007785,1.42158525 47.7007785,3.17519953 L47.7007785,7.13468677 L47.7007785,7.13468677 L0,7.13468677 L0,3.17519953 C-6.58845021e-16,1.42158525 1.42158525,-1.21955493e-16 3.17519953,0 Z" id="Rectangle-2-Copy-46" fill="#13A77A"></path>
                    <ellipse id="Oval" fill="#FFFFFF" fill-rule="nonzero" cx="3.81606228" cy="3.64661768" rx="1.27202076" ry="1.26838876"></ellipse>
                    <ellipse id="Oval-Copy" fill="#FFFFFF" fill-rule="nonzero" cx="7.63212456" cy="3.64661768" rx="1.27202076" ry="1.26838876"></ellipse>
                    <ellipse id="Oval-Copy-2" fill="#FFFFFF" fill-rule="nonzero" cx="11.4481868" cy="3.64661768" rx="1.27202076" ry="1.26838876"></ellipse>
                    <rect id="Rectangle-Copy-11" fill="#1EC794" fill-rule="nonzero" x="20.3523322" y="3.0124233" width="23.5323841" height="1.26838876"></rect>
                </g>
                <g id="Group" transform="translate(67.576103, 63.419438)" fill-rule="nonzero">
                    <line x1="18.0467945" y1="5.70774942" x2="21.6243529" y2="15.8548595" id="Path-21-Copy" stroke="#B1D8FF" stroke-width="1.27007981"></line>
                    <line x1="23.9298905" y1="27.4289069" x2="23.9298905" y2="37.576017" id="Path-21-Copy-5" stroke="#B1D8FF" stroke-width="1.27007981"></line>
                    <line x1="36.9548531" y1="7.85948035" x2="28.9384723" y2="15.8322097" id="Path-21-Copy-3" stroke="#B1D8FF" stroke-width="1.27007981"></line>
                    <line x1="19.6235703" y1="23.8728884" x2="11.6071894" y2="31.8456178" id="Path-21-Copy-4" stroke="#B1D8FF" stroke-width="1.27007981"></line>
                    <line x1="30.3694956" y1="21.7211575" x2="41.3318412" y2="25.2885009" id="Path-21-Copy" stroke="#B1D8FF" stroke-width="1.27007981"></line>
                    <line x1="8.58614013" y1="15.8548595" x2="17.3312829" y2="20.1356716" id="Path-21" stroke="#B1D8FF" stroke-width="1.27007981"></line>
                    <ellipse id="Oval" fill="#4F8DF9" cx="24.5659009" cy="21.6418832" rx="10.0966648" ry="10.0678358"></ellipse>
                    <ellipse id="Oval-Copy" fill="#D94A4A" cx="36.0935891" cy="8.72017272" rx="2.86204671" ry="2.85387471"></ellipse>
                    <ellipse id="Oval-Copy-4" fill="#1B2653" cx="11.6071894" cy="31.709719" rx="2.86204671" ry="2.85387471"></ellipse>
                    <ellipse id="Oval-Copy-2" fill="#FF9900" cx="17.3312829" cy="5.07355504" rx="5.08808304" ry="5.07355504"></ellipse>
                    <ellipse id="Oval-Copy-5" fill="#3063BB" cx="23.9298905" cy="38.2102114" rx="3.57755839" ry="3.64661768"></ellipse>
                    <ellipse id="Oval-Copy-6" fill="#3063BB" cx="41.2611734" cy="25.2092266" rx="3.57755839" ry="3.64661768"></ellipse>
                    <ellipse id="Oval-Copy-3" fill="#FFC100" cx="5.80359472" cy="14.5071964" rx="5.80359472" ry="5.78702372"></ellipse>
                </g>
                <g id="Group" transform="translate(132.446117, 0.000000)">
                    <ellipse id="Oval-3-Copy" fill="#FFC100" cx="15.4232517" cy="14.4279221" rx="5.08808304" ry="5.07355504"></ellipse>
                    <polygon id="Path-20" fill="#111B42" fill-rule="nonzero" points="0.210454044 14.4279221 43.4077084 14.4279221 43.4077084 19.5112796 26.8714386 34.7221423 26.8714386 40.4298917 18.9213088 44.0765094 18.9213088 34.7221423 0.156448903 19.5112796"></polygon>
                    <rect id="Rectangle-Copy-3" fill="#2B3B67" fill-rule="nonzero" x="22.1013607" y="29.3314901" width="3.81606228" height="1.26838876"></rect>
                    <rect id="Rectangle-Copy-4" fill="#2B3B67" fill-rule="nonzero" x="18.7623062" y="26.4776154" width="7.15511677" height="1.26838876"></rect>
                    <rect id="Rectangle-Copy-5" fill="#2B3B67" fill-rule="nonzero" x="22.1013607" y="23.6237406" width="3.81606228" height="1.26838876"></rect>
                    <rect id="Rectangle-Copy-6" fill="#2B3B67" fill-rule="nonzero" x="18.7623062" y="20.7698659" width="7.15511677" height="1.26838876"></rect>
                    <rect id="Rectangle-Copy-7" fill="#2B3B67" fill-rule="nonzero" x="22.1013607" y="17.9159912" width="3.81606228" height="1.26838876"></rect>
                    <path d="M20.5113348,14.4279221 C20.5113348,17.2299692 18.2333224,19.5014772 15.4232517,19.5014772 C12.613181,19.5014772 10.3351687,17.2299692 10.3351687,14.4279221 L10.3351687,14.4279221 Z" id="Combined-Shape" fill="#1B2653" fill-rule="nonzero"></path>
                    <path d="M43.4077084,14.4279221 L43.4077084,19.5112796 L27.0444386,34.5629221 L26.8714386,34.5635937 L26.8714386,14.4279221 L43.4077084,14.4279221 Z" id="Combined-Shape" fill="#1B2653" fill-rule="nonzero"></path>
                    <ellipse id="Oval-3-Copy-3" fill="#FFC100" cx="26.8714386" cy="5.07355504" rx="5.08808304" ry="5.07355504"></ellipse>
                    <rect id="Rectangle-Copy-8" fill="#4D587B" fill-rule="nonzero" x="0.159002595" y="14.4279221" width="43.2487058" height="1.26838876"></rect>
                    <polygon id="Rectangle-Copy-9" fill="#1B2653" fill-rule="nonzero" points="18.9213088 42.8081206 26.8714386 39.161503 26.8714386 40.4298917 18.9213088 44.0765094"></polygon>
                </g>
                <g id="Group-2" transform="translate(8.109132, 58.980077)">
                    <g id="Group">
                        <g id="Group-6" fill="#D94A4A">
                            <path d="M15.4033764,43.7594122 C-37.2158783,-11.189917 66.6831131,-17.8870145 17.9672932,43.7594122 L15.4033764,43.7594122 Z" id="Fill-64"></path>
                        </g>
                        <path d="M17.9672932,43.7594122 L16.5362699,43.7591337 L16.5362699,0.0258451334 L17.2270632,0.0205552126 C29.8198832,0.623024448 41.1008735,14.4855015 17.9672932,43.7594122 Z" id="Combined-Shape" fill="#BB3F3F"></path>
                        <ellipse id="Oval-3" stroke="#D94A4A" stroke-width="1.27007981" fill="#FFFFFF" cx="15.9002595" cy="14.9828422" rx="6.83711158" ry="6.89686388"></ellipse>
                    </g>
                    <path d="M13.8386738,31.9877722 L14.4686405,31.9877722 C16.2222548,31.9877722 17.64384,33.4093574 17.64384,35.1629717 L17.64384,56.161019 C17.64384,57.9146333 16.2222548,59.3362185 14.4686405,59.3362185 L13.8386738,59.3362185 L13.8386738,59.3362185 L13.8386738,31.9877722 Z" id="Rectangle-5-Copy-8" fill="#BBDFFB" transform="translate(15.741257, 45.661995) scale(1, -1) rotate(-270.000000) translate(-15.741257, -45.661995) "></path>
                </g>
                <g id="Group-4" transform="translate(257.399993, 56.699998)">
                    <g id="Group">
                        <path d="M18.6033036,32.8195592 C18.6033036,22.2760776 19.8774299,18.3212215 24.3818502,11.732596" id="Stroke-53" stroke="#13A77A" stroke-width="2.54015963" stroke-linecap="square" stroke-linejoin="round"></path>
                        <path d="M9.85816089,11.732596 C13.6291022,20.5777733 14.8552744,25.9190778 14.5711733,32.269452" id="Stroke-52" stroke="#13A77A" stroke-width="2.54015963" stroke-linecap="square" stroke-linejoin="round"></path>
                        <path d="M31.0172729,1.07132737 C3.64562094,11.3964388 24.3578871,26.9618851 29.8077244,15.1131479 C32.0581287,10.2205528 32.2687217,4.85209225 32.2067632,0.616087363 L31.0172729,1.07132737 Z" id="Fill-14" fill="#1EC794" transform="translate(24.691583, 9.993579) rotate(5.000000) translate(-24.691583, -9.993579) "></path>
                        <path d="M3.42965976,0.839185779 C0.699311099,27.2065921 21.432395,17.0373867 13.8981768,7.27860467 C11.1747964,3.7511152 8.19094708,2.62352587 3.42965976,0.475645785 L3.42965976,0.839185779 Z" id="Fill-51" fill="#1EC794"></path>
                        <path d="M6.71981408,47.0615967 C3.30194929,35.4891198 2.3544947,29.284993 1.59059241,24.440752 C1.43809526,23.4734329 30.9527123,23.6656037 31.005506,23.7822892 C31.5807891,25.0527089 27.707595,46.4607636 27.608164,46.4873866 L6.71981408,47.0615967 Z" id="Fill-54" fill="#6BB0FF"></path>
                        <path d="M27.6905198,46.1392131 L16.8542751,46.1376411 L16.8542751,26.7947125 L30.8636862,26.7929706 C30.2070915,32.4152088 28.1346172,43.9880536 27.6905198,46.1392131 Z" id="Combined-Shape" fill="#4F8EF9"></path>
                        <polygon id="Rectangle-5-Copy-7" fill="#3F70C7" transform="translate(16.854275, 25.684872) rotate(-270.000000) translate(-16.854275, -25.684872) " points="14.4760461 8.83059732 19.232504 8.83059732 19.232504 42.5391475 14.4760461 42.5391475"></polygon>
                        <path d="M14.9516919,32.463418 L15.5816587,32.463418 C17.335273,32.463418 18.7568582,33.8850032 18.7568582,35.6386175 L18.7568582,56.6366648 C18.7568582,58.390279 17.335273,59.8118643 15.5816587,59.8118643 L14.9516919,59.8118643 L14.9516919,59.8118643 L14.9516919,32.463418 Z" id="Rectangle-5-Copy-8" fill="#1B2653" transform="translate(16.854275, 46.137641) rotate(-270.000000) translate(-16.854275, -46.137641) "></path>
                        <path d="M32.9954679,1.30676261 C32.6879985,5.53204827 32.0103147,10.8617258 29.3420561,15.5395674 C26.8036267,19.9898884 22.2875655,20.0204426 19.4469735,17.9380137 L19.3983166,18.0745398 C20.3868662,15.2473263 21.824353,12.6048497 23.7107772,10.1471101 C25.5871782,7.7024292 28.6622366,4.76123286 32.9359524,1.32352107 Z" id="Combined-Shape" fill="#13A77A"></path>
                        <path d="M3.48222071,0.499347968 C3.504091,0.509206704 3.52592371,0.519044062 3.54771897,0.528860375 L3.49104563,0.475645785 C6.67577183,3.42933127 8.90414532,6.12465738 10.1761661,8.56162413 C11.4481868,10.9985909 12.4022024,13.6630881 13.0382128,16.5551158 L12.8676498,16.7025646 C8.81104412,19.4056619 1.76630973,16.9024186 3.42965976,0.839185779 L3.42965976,0.839185779 L3.4290519,0.631645785 Z" id="Combined-Shape" fill="#13A77A"></path>
                    </g>
                    <polygon id="Rectangle-Copy-7" fill="#4F8EF9" fill-rule="nonzero" points="2.06703373 28.0631013 29.9394761 28.0631013 29.9394761 29.3314901 2.27266942 29.3314901"></polygon>
                </g>
                <g id="Group-3" transform="translate(251.999993, 0.000000)">
                    <path d="M1.59002595,16.8061511 L42.6126955,16.8061511 L42.6126955,42.1696986 C42.6126955,43.9233129 41.1911102,45.3448982 39.4374959,45.3448982 L4.76522548,45.3448982 C3.0116112,45.3448982 1.59002595,43.9233129 1.59002595,42.1696986 L1.59002595,16.8061511 L1.59002595,16.8061511 Z" id="Rectangle" fill="#FFC100" fill-rule="nonzero"></path>
                    <path d="M14.1449885,13.048948 C2.94960428,10.1614713 9.65482349,-5.88461847 18.4481747,2.30430578 C20.6329834,4.33893774 21.437948,7.24676443 21.8716903,13.4043642 C18.9833798,13.4043642 16.7265212,13.7147684 14.1449885,13.048948 Z" id="Path-31" stroke="#D94A4A" stroke-width="2.85767958"></path>
                    <path d="M29.0693148,13.1655887 C18.8916927,11.0656057 24.9873465,-0.604277823 32.9813022,5.35130345 C34.9674919,6.83103579 35.6992779,8.94581883 36.0935891,13.4240732 C33.4678522,13.4240732 31.4161626,13.6498217 29.0693148,13.1655887 Z" id="Path-31-Copy" stroke="#D94A4A" stroke-width="2.85767958" transform="translate(29.910155, 8.576038) scale(-1, 1) translate(-29.910155, -8.576038) "></path>
                    <rect id="Rectangle-Copy-2" fill="#BB3F3F" fill-rule="nonzero" x="0" y="11.0984016" width="44.361724" height="7.61033256"></rect>
                    <rect id="Rectangle" fill="#FF8100" fill-rule="nonzero" x="1.59002595" y="18.7087342" width="41.0226695" height="1.26838876"></rect>
                    <rect id="Rectangle-Copy-3" fill="#D94A4A" fill-rule="nonzero" x="1.59002595" y="27.2703583" width="41.0226695" height="4.75645785"></rect>
                    <polygon id="Rectangle-Copy-3" fill="#D94A4A" fill-rule="nonzero" transform="translate(22.101361, 32.026816) rotate(-90.000000) translate(-22.101361, -32.026816) " points="8.78327873 29.6417773 35.4194427 29.6417773 35.4194427 34.4118551 8.78327873 34.4118551"></polygon>
                    <rect id="Rectangle-Copy-18" fill="#BB3F3F" fill-rule="nonzero" x="19.7163218" y="32.0268162" width="4.77007785" height="1.26838876"></rect>
                    <rect id="Rectangle-Copy-19" fill="#BB3F3F" fill-rule="nonzero" x="19.7163218" y="26.0019696" width="4.77007785" height="1.26838876"></rect>
                </g>
                <g id="Group" transform="translate(132.926169, 60.565563)">
                    <path d="M3.17519953,-1.79056762e-14 L33.7134025,-1.79056762e-14 C35.4670168,-1.86718991e-14 36.888602,1.42158525 36.888602,3.17519953 L36.888602,37.6613719 L36.888602,37.6613719 L26.8769055,47.5645785 L3.17519953,47.5645785 C1.42158525,47.5645785 1.10293423e-15,46.1429932 0,44.389379 L0,3.17519953 C-2.14755812e-16,1.42158525 1.42158525,-1.62512748e-14 3.17519953,-1.79056762e-14 Z" id="Rectangle-Copy" fill="#FFC100" fill-rule="nonzero"></path>
                    <path d="M30.0466381,37.576017 L36.888602,37.576017 L36.888602,37.576017 L26.8714386,47.5645785 L26.8714386,40.7512165 C26.8714386,38.9976023 28.2930238,37.576017 30.0466381,37.576017 Z" id="Rectangle-Copy-27" fill="#FF8100" fill-rule="nonzero"></path>
                    <rect id="Rectangle" fill="#FFDF7C" fill-rule="nonzero" x="5.08808304" y="28.0631013" width="26.712436" height="1.26838876"></rect>
                    <rect id="Rectangle-Copy-3" fill="#FFFFFF" fill-rule="nonzero" x="5.08808304" y="25.2092266" width="26.712436" height="1.26838876"></rect>
                    <polygon id="Rectangle-Copy-4" fill="#FFFFFF" fill-rule="nonzero" transform="translate(5.724093, 17.678168) rotate(-90.000000) translate(-5.724093, -17.678168) " points="-3.0753536 17.042158 14.5235404 17.042158 14.5235404 18.3141787 -3.0753536 18.3141787"></polygon>
                    <rect id="Rectangle-Copy-2" fill="#FFDF7C" fill-rule="nonzero" x="5.08808304" y="30.916976" width="26.712436" height="1.26838876"></rect>
                    <rect id="Rectangle-Copy-5" fill="#FFDF7C" fill-rule="nonzero" x="5.08808304" y="33.7708507" width="15.5822543" height="1.26838876"></rect>
                    <rect id="Rectangle-Copy-7" fill="#FFDF7C" fill-rule="nonzero" x="5.08808304" y="39.4786001" width="10.3351687" height="1.26838876"></rect>
                    <rect id="Rectangle-Copy-6" fill="#FFDF7C" fill-rule="nonzero" x="5.08808304" y="36.6247254" width="19.0803114" height="1.26838876"></rect>
                    <polygon id="Rectangle-5-Copy-3" fill="#BB3F3F" points="8.90414532 21.2455117 12.7202076 21.2455117 12.7202076 25.2092266 8.90414532 25.2092266"></polygon>
                    <polygon id="Rectangle-5-Copy-4" fill="#BB3F3F" points="13.9922284 18.8672828 17.8082906 18.8672828 17.8082906 25.2092266 13.9922284 25.2092266"></polygon>
                    <polygon id="Rectangle-5-Copy-5" fill="#BB3F3F" points="19.0803114 15.8548595 22.8963737 15.8548595 22.8963737 25.2092266 19.0803114 25.2092266"></polygon>
                    <polygon id="Rectangle-5-Copy-6" fill="#BB3F3F" points="24.1683944 12.525339 27.9844567 12.525339 27.9844567 25.2092266 24.1683944 25.2092266"></polygon>
                    <path d="M11.9681589,12.6340415 C16.3207997,12.4185429 20.823393,9.64255118 23.4099265,5.61833355" id="Path-13-Copy" stroke="#13A77A" stroke-width="1.27007981" stroke-linecap="square" transform="translate(17.689043, 9.126188) rotate(11.000000) translate(-17.689043, -9.126188) "></path>
                    <polyline id="Path-5" stroke="#13A77A" stroke-width="1.27007981" stroke-linecap="square" points="21.7391062 5.70774942 24.9191581 5.70774942 24.9191581 8.87872132"></polyline>
                </g>
                <g id="Group" transform="translate(0.000000, 6.500492)">
                    <rect id="Rectangle-Copy" fill="#BBDFFB" fill-rule="nonzero" x="0" y="0" width="47.7007785" height="36.783274" rx="3.17519953"></rect>
                    <rect id="Rectangle-16-Copy-4" fill="#4F8DF9" x="3.81606228" y="10.6227559" width="40.0570196" height="20.3943561" rx="1.58759977"></rect>
                    <path d="M3.17519953,0 L44.525579,0 C46.2791932,-3.22133717e-16 47.7007785,1.42158525 47.7007785,3.17519953 L47.7007785,7.13468677 L47.7007785,7.13468677 L0,7.13468677 L0,3.17519953 C-2.14755812e-16,1.42158525 1.42158525,3.22133717e-16 3.17519953,0 Z" id="Rectangle-2-Copy-46" fill="#2B3B67"></path>
                    <ellipse id="Oval" fill="#FFFFFF" fill-rule="nonzero" cx="3.81606228" cy="3.64661768" rx="1.27202076" ry="1.26838876"></ellipse>
                    <ellipse id="Oval-Copy" fill="#FFFFFF" fill-rule="nonzero" cx="7.63212456" cy="3.64661768" rx="1.27202076" ry="1.26838876"></ellipse>
                    <path d="M3.81606228,29.8071359 L43.8847162,29.8071359 C43.8847162,30.5076476 43.3168392,31.0755246 42.6163275,31.0755246 L5.08445104,31.0755246 C4.38393927,31.0755246 3.81606228,30.5076476 3.81606228,29.8071359 L3.81606228,29.8071359 L3.81606228,29.8071359 Z" id="Rectangle-Copy-12" fill="#3F70C7" fill-rule="nonzero"></path>
                    <ellipse id="Oval-Copy-2" fill="#FFFFFF" fill-rule="nonzero" cx="11.4481868" cy="3.64661768" rx="1.27202076" ry="1.26838876"></ellipse>
                    <path d="M23.8503892,13.9522764 C33.1587483,13.9522764 40.7046643,21.2636926 40.7046643,30.2827816 C40.7046643,30.5488424 40.6980976,30.8134171 40.6851126,31.0763619 L7.01566586,31.0763619 C7.0026809,30.8134171 6.99611418,30.5488424 6.99611418,30.2827816 C6.99611418,21.2636926 14.5420302,13.9522764 23.8503892,13.9522764 Z" id="Combined-Shape-Copy-2" fill="#FFFFFF"></path>
                    <line x1="17.8453575" y1="24.6116074" x2="23.8542674" y2="31.2090392" id="Path-4" stroke="#FFC100" stroke-width="2.54015963" stroke-linecap="round"></line>
                    <rect id="Rectangle-Copy-11" fill="#1B2653" fill-rule="nonzero" x="20.3523322" y="3.0124233" width="23.5323841" height="1.26838876"></rect>
                    <rect id="Rectangle-Copy-13" fill="#E4F2FE" fill-rule="nonzero" x="3.81606228" y="32.8195592" width="13.8332258" height="1.26838876"></rect>
                    <ellipse id="Oval-Copy-34" fill="#BB3F3F" cx="23.7805832" cy="31.3175198" rx="2.79224069" ry="2.77877274"></ellipse>
                    <polygon id="Rectangle-Copy-7" fill="#E4F2FE" fill-rule="nonzero" transform="translate(23.850389, 15.220665) rotate(-270.000000) translate(-23.850389, -15.220665) " points="22.5820005 14.5846547 25.118778 14.5846547 25.118778 15.8566755 22.5820005 15.8566755"></polygon>
                    <polygon id="Rectangle-Copy-7" fill="#E4F2FE" fill-rule="nonzero" transform="translate(35.178154, 19.895515) rotate(-225.000000) translate(-35.178154, -19.895515) " points="33.9070412 19.2585967 36.4474508 19.2622287 36.4492668 20.5324334 33.9088572 20.5288014"></polygon>
                    <polygon id="Rectangle-Copy-7" fill="#E4F2FE" fill-rule="nonzero" transform="translate(12.638366, 19.895515) scale(-1, 1) rotate(-225.000000) translate(-12.638366, -19.895515) " points="11.3672532 19.2585967 13.9076628 19.2622287 13.9094788 20.5324334 11.3690692 20.5288014"></polygon>
                </g>
                <g id="Group-2" transform="translate(187.758023, 3.329520)">
                    <path d="M3.59027235,28.2696855 L12.4765422,28.2569809 L12.4635443,37.3483908 C12.4600331,39.8043189 10.4699852,41.7943668 8.01405708,41.797878 C5.56718796,41.8013763 3.58077271,39.8206329 3.57727445,37.3737637 C3.57726841,37.369541 3.57726841,37.3653182 3.57727445,37.3610954 L3.59027235,28.2696855 L3.59027235,28.2696855 Z" id="Rectangle-4-Copy" fill="#1B2653" transform="translate(8.026906, 35.027432) rotate(-315.000000) translate(-8.026906, -35.027432) "></path>
                    <ellipse id="Oval-Copy" fill="#4F8DF9" cx="24.8885342" cy="18.8672828" rx="18.9213088" ry="18.8672828"></ellipse>
                    <path d="M12.5827724,30.0191991 L15.9607057,33.3863679 L9.52291721,39.8057746 C7.783831,41.5398952 4.9694782,41.5398952 3.23039199,39.8057746 C3.15271072,39.7283151 3.07850408,39.6486899 3.00777237,39.5670927 L12.5827724,30.0191991 Z" id="Combined-Shape" fill="#111B42"></path>
                    <path d="M8.89426113,27.9045527 L15.1867863,34.1791109 L13.8493681,35.5119979 C11.3287738,33.8857026 9.2207178,31.6779108 7.71616411,29.0790412 L8.89426113,27.9045527 Z" id="Combined-Shape" fill="#2B3B67"></path>
                    <path d="M9.68927411,27.1118097 L15.9817993,33.3863679 L14.6443811,34.7192549 C12.1237867,33.0929596 10.0157308,30.8851679 8.51117708,28.2862982 L9.68927411,27.1118097 Z" id="Combined-Shape-Copy" fill="#4F8DF9"></path>
                    <ellipse id="Oval-Copy" stroke="#6BB0FF" stroke-width="1.27007981" fill="#FFFFFF" cx="24.8885342" cy="18.8672828" rx="12.8801807" ry="12.8415907"></ellipse>
                    <g id="Group" transform="translate(19.080311, 10.464207)">
                        <path d="M6.2011012,10.6227559 C7.84001336,14.2891444 8.93373255,17.3763107 9.69915829,20.1356716" id="Stroke-52" stroke="#13A77A" stroke-width="2.54015963" stroke-linecap="square" stroke-linejoin="round"></path>
                        <path d="M0.250119817,0.345844764 C-2.48582895,25.4298233 18.2897798,15.7556018 10.7401084,6.47182634 C8.01114217,3.11603666 5.02117283,2.04333249 0.250119817,0 L0.250119817,0.345844764 Z" id="Fill-51" fill="#1EC794"></path>
                        <path d="M0.29711892,0.158631645 C0.318983729,0.168174977 0.340810351,0.177697281 0.362598939,0.187198889 L0.305977698,0.13612911 C3.43933736,2.94990219 5.63176933,5.51755406 6.88327363,7.83908472 C8.13477792,10.1606154 9.07340615,12.6988987 9.69915829,15.4539346 L9.53103186,15.5946018 C5.53980566,18.1693286 -1.39089689,15.7843842 0.245581924,0.482448667 L0.245581924,0.482448667 L0.245000001,0.28512911 Z" id="Combined-Shape" fill="#13A77A"></path>
                    </g>
                </g>
                <g id="Group-2" transform="translate(191.699995, 63.899998)" fill-rule="nonzero">
                    <rect id="Rectangle-Copy" fill="#FFFFFF" x="0" y="0" width="43.2487058" height="15.2206651" rx="3.17519953"></rect>
                    <rect id="Rectangle-Copy-2" fill="#D6E4F2" x="27.8254541" y="18.0745398" width="15.4232517" height="25.050678" rx="3.17519953"></rect>
                    <g id="Group" transform="translate(0.000000, 18.708734)">
                        <path d="M14.2837331,0 L14.2838051,2.2010693 C19.1113164,3.00651636 22.7903719,7.1921735 22.7903719,12.2346666 C22.7903719,17.2771597 19.1113164,21.4628168 14.2838051,22.2682639 L14.2837331,24.4164836 L10.2026665,24.4164836 L10.2026659,22.128718 C5.71839237,21.0578256 2.38503892,17.0344078 2.38503892,12.2346666 C2.38503892,7.43492537 5.71839237,3.4115076 10.2026659,2.34061514 L10.2026665,0 L14.2837331,0 Z M12.561205,9.03726991 C10.8049108,9.03726991 9.3811531,10.4569624 9.3811531,12.2082418 C9.3811531,13.9595212 10.8049108,15.3792137 12.561205,15.3792137 C14.3174992,15.3792137 15.7412569,13.9595212 15.7412569,12.2082418 C15.7412569,10.4569624 14.3174992,9.03726991 12.561205,9.03726991 Z M24.4863996,10.1735348 L24.4863996,14.2429488 L20.405333,14.2429488 L20.405333,10.1735348 L24.4863996,10.1735348 Z M4.0810666,10.1735348 L4.0810666,14.2429488 L-1.01074703e-13,14.2429488 L-1.00186525e-13,10.1735348 L4.0810666,10.1735348 Z M19.5590859,2.23817767 L22.4448357,5.11568786 L19.5590859,7.99319805 L16.673336,5.11568786 L19.5590859,2.23817767 Z M5.1303365,16.6257286 L8.01608637,19.5032388 L5.1303365,22.380749 L2.24458663,19.5032388 L5.1303365,16.6257286 Z M22.4448357,19.5032388 L19.5590859,22.380749 L16.673336,19.5032388 L19.5590859,16.6257286 L22.4448357,19.5032388 Z M8.01608637,5.11568786 L5.1303365,7.99319805 L2.24458663,5.11568786 L5.1303365,2.23817767 L8.01608637,5.11568786 Z" id="Combined-Shape" fill="#AEC7E0"></path>
                        <ellipse id="Oval" stroke="#6F93B7" stroke-width="2.54015963" cx="12.561205" cy="12.2082418" rx="4.45013171" ry="4.44105171"></ellipse>
                    </g>
                    <rect id="Rectangle-Copy-7" fill="#D6E4F2" x="3.33905449" y="3.48806909" width="36.888602" height="2.53677752"></rect>
                    <rect id="Rectangle-Copy-8" fill="#D6E4F2" x="3.33905449" y="8.87872132" width="36.888602" height="2.53677752"></rect>
                    <rect id="Rectangle-Copy-10" fill="#EDF2F7" x="31.6415164" y="21.2455117" width="3.1800519" height="2.53677752"></rect>
                    <rect id="Rectangle-Copy-14" fill="#EDF2F7" x="31.6415164" y="29.4900387" width="3.1800519" height="2.53677752"></rect>
                    <rect id="Rectangle-Copy-12" fill="#EDF2F7" x="31.6415164" y="25.3677752" width="3.1800519" height="2.53677752"></rect>
                    <rect id="Rectangle-Copy-15" fill="#FFFFFF" x="31.6415164" y="33.6123021" width="3.1800519" height="2.53677752"></rect>
                    <rect id="Rectangle-Copy-18" fill="#EDF2F7" x="31.6415164" y="37.7345656" width="3.1800519" height="2.53677752"></rect>
                    <rect id="Rectangle-Copy-11" fill="#FFFFFF" x="36.4115943" y="21.2455117" width="3.1800519" height="2.53677752"></rect>
                    <rect id="Rectangle-Copy-16" fill="#EDF2F7" x="36.4115943" y="29.4900387" width="3.1800519" height="2.53677752"></rect>
                    <rect id="Rectangle-Copy-13" fill="#FFFFFF" x="36.4115943" y="25.3677752" width="3.1800519" height="2.53677752"></rect>
                    <rect id="Rectangle-Copy-17" fill="#EDF2F7" x="36.4115943" y="33.6123021" width="3.1800519" height="2.53677752"></rect>
                    <rect id="Rectangle-Copy-19" fill="#EDF2F7" x="36.4115943" y="37.7345656" width="3.1800519" height="2.53677752"></rect>
                    <rect id="Rectangle-Copy-4" fill="#6F93B7" x="32.7545346" y="7.76888115" width="3.97506487" height="4.75645785" rx="1.58759977"></rect>
                    <rect id="Rectangle-Copy-5" fill="#6F93B7" x="26.3944308" y="2.37822892" width="3.97506487" height="4.75645785" rx="1.58759977"></rect>
                </g>
            </g>
        </g>
    </g>
</svg>