<?xml version="1.0" encoding="UTF-8"?>
<svg width="300px" height="130px" viewBox="0 0 300 130" version="1.1" xmlns="http://www.w3.org/2000/svg" xmlns:xlink="http://www.w3.org/1999/xlink">
    <!-- Generator: Sketch 61 (89581) - https://sketch.com -->
    <title>case3 copy 2</title>
    <desc>Created with Sketch.</desc>
    <g id="case3-copy-2" stroke="none" stroke-width="1" fill="none" fill-rule="evenodd">
        <g id="Group-14">
            <rect id="Rectangle" x="0" y="0" width="300" height="130"></rect>
        </g>
        <rect id="Rectangle-Copy-26" fill="#ECAE1D" x="26" y="11" width="94" height="119" rx="3.75999999"></rect>
        <g id="Group-18-Copy-6" transform="translate(39.000000, 0.000000)">
            <rect id="Rectangle" fill="#D6E4F2" x="0" y="0" width="93.9999998" height="119.38" rx="3.75999999"></rect>
            <path d="M3.75999999,0 L90.24,0 C92.3165907,6.26256952e-17 94,1.68340934 94,3.75999999 L94,44.1799999 L94,44.1799999 L0,44.1799999 L0,3.75999999 C1.897802e-16,1.68340934 1.68340934,8.25552725e-16 3.75999999,0 Z" id="Rectangle" fill="#1B2653"></path>
            <rect id="Rectangle-Copy" fill="#FFFFFF" x="15.04" y="27.2599999" width="16.92" height="34.7799999"></rect>
            <rect id="Rectangle-Copy-60" fill="#FFFFFF" x="35.7199999" y="27.2599999" width="43.2399999" height="34.7799999"></rect>
            <rect id="Rectangle-Copy-75" fill="#FFFFFF" x="8.45999998" y="85.5399998" width="76.1399998" height="23.4999999"></rect>
            <rect id="Rectangle" fill="#4F8DF9" x="18.8" y="29.1399999" width="9.39999998" height="3.75999999"></rect>
            <rect id="Rectangle-Copy-61" fill="#4F8DF9" x="40.4199999" y="29.1399999" width="9.39999998" height="3.75999999"></rect>
            <rect id="Rectangle-Copy-76" fill="#EDF2F7" x="10.34" y="69.5599998" width="11.28" height="6.57999998"></rect>
            <rect id="Rectangle-Copy-77" fill="#EDF2F7" x="24.4399999" y="69.5599998" width="23.4999999" height="6.57999998"></rect>
            <rect id="Rectangle-Copy-78" fill="#EDF2F7" x="49.8199999" y="69.5599998" width="15.04" height="6.57999998"></rect>
            <rect id="Rectangle-Copy-79" fill="#EDF2F7" x="67.6799998" y="69.5599998" width="17.86" height="6.57999998"></rect>
            <rect id="Rectangle-Copy-14" fill="#D6E4F2" x="23.4999999" y="17.86" width="46.9999999" height="1.88"></rect>
            <rect id="Rectangle-Copy-68" fill="#D6E4F2" x="37.5999999" y="11.28" width="18.8" height="3.75999999"></rect>
            <rect id="Rectangle-Copy-18" fill="#D6E4F2" x="18.8" y="34.7799999" width="9.39999998" height="1.88"></rect>
            <rect id="Rectangle-Copy-62" fill="#D6E4F2" x="40.4199999" y="34.7799999" width="9.39999998" height="1.88"></rect>
            <rect id="Rectangle-Copy-57" fill="#D6E4F2" x="18.8" y="46.9999999" width="9.39999998" height="1.88"></rect>
            <rect id="Rectangle-Copy-63" fill="#D6E4F2" x="40.4199999" y="46.9999999" width="9.39999998" height="1.88"></rect>
            <rect id="Rectangle-Copy-38" fill="#D6E4F2" x="18.8" y="38.5399999" width="9.39999998" height="1.88"></rect>
            <rect id="Rectangle-Copy-64" fill="#D6E4F2" x="40.4199999" y="38.5399999" width="9.39999998" height="1.88"></rect>
            <rect id="Rectangle-Copy-58" fill="#D6E4F2" x="18.8" y="50.7599999" width="9.39999998" height="1.88"></rect>
            <rect id="Rectangle-Copy-65" fill="#D6E4F2" x="40.4199999" y="50.7599999" width="9.39999998" height="1.88"></rect>
            <rect id="Rectangle-Copy-56" fill="#D6E4F2" x="18.8" y="42.2999999" width="9.39999998" height="1.88"></rect>
            <rect id="Rectangle-Copy-66" fill="#D6E4F2" x="40.4199999" y="42.2999999" width="9.39999998" height="1.88"></rect>
            <rect id="Rectangle-Copy-59" fill="#D6E4F2" x="18.8" y="54.5199999" width="9.39999998" height="1.88"></rect>
            <rect id="Rectangle-Copy-67" fill="#D6E4F2" x="40.4199999" y="54.5199999" width="9.39999998" height="1.88"></rect>
            <rect id="Rectangle-Copy-16" fill="#D6E4F2" x="25.3799999" y="90.2399998" width="43.2399999" height="1.88"></rect>
            <rect id="Rectangle-Copy-17" fill="#D6E4F2" x="32.8999999" y="93.9999998" width="28.1999999" height="1.88"></rect>
            <rect id="Rectangle-Copy-11" fill="#FF8100" x="35.7199999" y="97.7599998" width="21.6199999" height="3.75999999"></rect>
            <rect id="Rectangle" fill="#EDF2F7" x="54.5199999" y="29.1399999" width="22.5599999" height="30.0799999"></rect>
            <rect id="Rectangle-Copy-69" fill="#D6E4F2" x="84.5999998" y="3.75999999" width="4.69999999" height="1.88"></rect>
            <rect id="Rectangle-Copy-70" fill="#D6E4F2" x="77.0799998" y="3.75999999" width="4.69999999" height="1.88"></rect>
            <rect id="Rectangle-Copy-72" fill="#D6E4F2" x="58.2799999" y="3.75999999" width="4.69999999" height="1.88"></rect>
            <rect id="Rectangle-Copy-71" fill="#D6E4F2" x="65.7999998" y="3.75999999" width="8.45999998" height="1.88"></rect>
            <rect id="Rectangle-Copy-73" fill="#D6E4F2" x="48.8799999" y="3.75999999" width="8.45999998" height="1.88"></rect>
            <rect id="Rectangle-Copy-74" fill="#D6E4F2" x="6.57999998" y="2.81999999" width="13.16" height="2.81999999"></rect>
        </g>
        <g id="Group-Copy" transform="translate(180.000000, 0.000000)">
            <path d="M2.98468755,1.06865627e-13 L91.0153124,1.06865627e-13 C92.6637099,1.06562821e-13 94,1.33629014 94,2.98468755 L94,96.0130015 L94,96.0130015 L68.4880686,121.26 L2.98468755,121.26 C1.33629014,121.26 -6.9035569e-15,119.92371 0,118.275312 L0,2.98468755 C-2.01870462e-16,1.33629014 1.33629014,1.07168433e-13 2.98468755,1.06865627e-13 Z" id="Rectangle-Copy" fill="#FFFFFF" fill-rule="nonzero"></path>
            <path d="M71.6046874,95.8799998 L93.9999998,95.8799998 L93.9999998,95.8799998 L68.6199998,121.26 L68.6199998,98.8646873 C68.6199998,97.2162899 69.95629,95.8799998 71.6046874,95.8799998 Z" id="Rectangle-Copy-27" fill="#ECAE1D" fill-rule="nonzero"></path>
            <path d="M38.595294,100.40375 L38.595294,103.4 L12.717647,103.4 L12.717647,100.40375 L38.595294,100.40375 Z M60.4917646,93.4124998 L60.4917646,96.4087498 L12.717647,96.4087498 L12.717647,93.4124998 L60.4917646,93.4124998 Z M52.0317646,86.4212498 L52.0317646,89.4174998 L12.22,89.4174998 L12.22,86.4212498 L52.0317646,86.4212498 Z M79.8999998,79.4299998 L79.8999998,82.4262498 L12.22,82.4262498 L12.22,79.4299998 L79.8999998,79.4299998 Z M79.8999998,71.4399998 L79.8999998,74.4362498 L12.22,74.4362498 L12.22,71.4399998 L79.8999998,71.4399998 Z" id="Combined-Shape" fill="#D6E4F2" fill-rule="nonzero"></path>
            <rect id="Rectangle-Copy-3" fill="#FFFFFF" fill-rule="nonzero" x="12.22" y="64.8599998" width="67.6799998" height="2.81999999"></rect>
            <polygon id="Rectangle-Copy-4" fill="#FFFFFF" fill-rule="nonzero" transform="translate(15.040000, 44.650000) rotate(-90.000000) translate(-15.040000, -44.650000) " points="-7.51999998 43.2399999 37.5999999 43.2399999 37.5999999 46.0599999 -7.51999998 46.0599999"></polygon>
            <path d="M32.5355101,53.9324999 L32.5355101,63.9199998 L22.5599999,63.9199998 L22.5599999,53.9324999 L32.5355101,53.9324999 Z M45.5036734,53.5799999 L45.5036734,63.9199998 L35.5281632,63.9199998 L35.5281632,53.5799999 L45.5036734,53.5799999 Z M58.4718366,46.0599999 L58.4718366,63.9199998 L48.4963264,63.9199998 L48.4963264,46.0599999 L58.4718366,46.0599999 Z M71.4399998,38.5399999 L71.4399998,63.9199998 L61.4644896,63.9199998 L61.4644896,38.5399999 L71.4399998,38.5399999 Z" id="Combined-Shape" fill="#4352D9"></path>
            <path d="M24.532514,43.1403133 C47.234008,39.6851836 53.8060463,28.3000894 60.573808,18.9946583" id="Path-13-Copy" stroke="#FFC63F" stroke-width="1.88" stroke-linecap="square" transform="translate(42.553161, 31.067486) rotate(11.000000) translate(-42.553161, -31.067486) "></path>
            <polyline id="Path-5" stroke="#FFC63F" stroke-width="1.88" stroke-linecap="square" points="56.5489779 21.5940753 64.0689778 21.5940753 64.0689778 29.1140753"></polyline>
        </g>
        <path d="M156.923077,46 L168,57.6962025 L156.923077,68 L156.923077,62.2608696 L144,62.2608696 L144,52.6956522 L156.923077,52.6956522 L156.923077,46 Z" id="Combined-Shape" fill="#BB8507"></path>
    </g>
</svg>