<?xml version="1.0" encoding="UTF-8"?>
<svg width="1317px" height="343px" viewBox="0 0 1317 343" version="1.1" xmlns="http://www.w3.org/2000/svg" xmlns:xlink="http://www.w3.org/1999/xlink">
    <!-- Generator: Sketch 61 (89581) - https://sketch.com -->
    <title>Artboard Copy 2</title>
    <desc>Created with Sketch.</desc>
    <g id="Artboard-Copy-2" stroke="none" stroke-width="1" fill="none" fill-rule="evenodd">
        <text id="keywords-groups" font-family="Roboto-Medium, Roboto" font-size="11" font-weight="400" letter-spacing="0.1692307" fill="#2A3E52">
            <tspan x="111.072078" y="247">KEYWORDS GROUPS</tspan>
        </text>
        <g id="Group-6-Copy-3" transform="translate(73.000000, 121.000000)">
            <path d="M14.8576269,42.7193861 L29.06927,42.7193861 L29.06927,82.8773063 C29.06927,86.8017432 25.8878853,89.9831279 21.9634484,89.9831279 C18.0390116,89.9831279 14.8576269,86.8017432 14.8576269,82.8773063 L14.8576269,42.7193861 L14.8576269,42.7193861 Z" id="Rectangle-4-Copy" fill="#1B2653" transform="translate(21.963448, 66.351257) rotate(-315.000000) translate(-21.963448, -66.351257) "></path>
            <path d="M49.851208,22.6484821 L140.802492,22.6484821 C146.166132,22.6484821 150.51422,26.9965707 150.51422,32.3602099 C150.51422,37.723849 146.166132,42.0719376 140.802492,42.0719376 L49.851208,42.0719376 C49.0766702,42.0719376 48.4487833,41.4440507 48.4487833,40.6695129 L48.4487833,24.0509068 C48.4487833,23.276369 49.0766702,22.6484821 49.851208,22.6484821 Z" id="Rectangle-5-Copy" fill="#E6F0FA"></path>
            <ellipse id="Oval-5-Copy" fill="#4F8DF9" cx="58.4615319" cy="33.9788311" rx="33.3920519" ry="33.4677668"></ellipse>
            <ellipse id="Oval-5-Copy-2" fill="#FFFFFF" cx="58.7845238" cy="34.3025554" rx="23.255416" ry="23.3081466"></ellipse>
            <path d="M77.3803881,20.7050257 C80.3013468,24.3735471 82.0399398,28.9785921 82.0399398,33.9788311 C82.0399398,37.8629141 80.9908965,41.5085424 79.1535127,44.6619958 L63.6564998,44.6617317 C57.0413449,44.6617317 51.6787022,39.299089 51.6787022,32.6839341 C51.6787022,26.0687792 57.0413449,20.7061365 63.6564998,20.7061365 Z" id="Combined-Shape-Copy" fill="#E6F0FA"></path>
            <path d="M61.6914508,25.2382762 C62.2266013,25.2382762 62.6604264,25.6721013 62.6604264,26.2072518 L62.6604264,39.8080649 C62.6604264,40.3432154 62.2266013,40.7770406 61.6914508,40.7770406 C61.1563003,40.7770406 60.7224751,40.3432154 60.7224751,39.8080649 L60.7224751,26.2072518 C60.7224751,25.6721013 61.1563003,25.2382762 61.6914508,25.2382762 Z" id="Rectangle-15-Copy-2" fill="#8396A6"></path>
            <path d="M39.7565491,37.539798 C36.9999626,24.2799244 51.0828228,13.4485858 60.0764913,15.0335439" id="Path-13" stroke="#E9F3FB" stroke-width="1.9478122" stroke-linecap="round"></path>
            <g id="Group-5" transform="translate(80.821715, 57.244222)">
                <rect id="Rectangle-3-Copy-10" fill="#FFC100" x="25.8393511" y="0" width="76.2260858" height="22.0132496" rx="11.0066248"></rect>
                <path d="M11.0066248,13.5964189 L71.6792988,13.5964189 C77.7580898,13.5964189 82.6859236,18.5242526 82.6859236,24.6030437 C82.6859236,30.6818347 77.7580898,35.6096684 71.6792988,35.6096684 L11.0066248,35.6096684 C4.92783377,35.6096684 7.44437197e-16,30.6818347 0,24.6030437 C-7.44437197e-16,18.5242526 4.92783377,13.5964189 11.0066248,13.5964189 Z" id="Rectangle-3-Copy-11" fill="#FF9900"></path>
                <path d="M73.9633749,13.5964189 C78.6118621,13.5964189 82.3802056,17.3647623 82.3802056,22.0132496 L37.1862417,22.0132496 C31.9996116,22.0132496 27.6508875,18.4257473 26.4861179,13.5967913 L73.9633749,13.5964189 Z" id="Combined-Shape" fill="#FF8100"></path>
                <path d="M36.1809505,4.53213962 L51.0268595,4.53213962 C52.4571633,4.53213962 53.6166536,5.69162992 53.6166536,7.12193369 C53.6166536,8.55223746 52.4571633,9.71172776 51.0268595,9.71172776 L36.1809505,9.71172776 C34.7506467,9.71172776 33.5911564,8.55223746 33.5911564,7.12193369 C33.5911564,5.69162992 34.7506467,4.53213962 36.1809505,4.53213962 Z" id="Rectangle-3-Copy-11" fill="#FF9900"></path>
                <path d="M58.7903827,4.53213962 L73.6362917,4.53213962 C75.0665955,4.53213962 76.2260858,5.69162992 76.2260858,7.12193369 C76.2260858,8.55223746 75.0665955,9.71172776 73.6362917,9.71172776 L58.7903827,9.71172776 C57.360079,9.71172776 56.2005887,8.55223746 56.2005887,7.12193369 C56.2005887,5.69162992 57.360079,4.53213962 58.7903827,4.53213962 Z" id="Rectangle-3-Copy-14" fill="#FF9900"></path>
                <path d="M81.399815,4.53213962 L91.0778537,4.53213962 C92.5081575,4.53213962 93.6676478,5.69162992 93.6676478,7.12193369 C93.6676478,8.55223746 92.5081575,9.71172776 91.0778537,9.71172776 L81.399815,9.71172776 C79.9695112,9.71172776 78.8100209,8.55223746 78.8100209,7.12193369 C78.8100209,5.69162992 79.9695112,4.53213962 81.399815,4.53213962 Z" id="Rectangle-3-Copy-15" fill="#FF9900"></path>
                <path d="M85.2757176,12.9489703 L91.7238375,12.9489703 C93.1541413,12.9489703 94.3136316,14.1084606 94.3136316,15.5387644 C94.3136316,16.9690682 93.1541413,18.1285585 91.7238375,18.1285585 L85.2757176,18.1285585 C83.8454139,18.1285585 82.6859236,16.9690682 82.6859236,15.5387644 C82.6859236,14.1084606 83.8454139,12.9489703 85.2757176,12.9489703 Z" id="Rectangle-3-Copy-16" fill="#FF9900"></path>
            </g>
            <rect id="Rectangle-3-Copy-11" fill="#FFFFFF" x="122.090934" y="28.9641591" width="20.0254971" height="8.06256644" rx="4.03128322"></rect>
            <rect id="Rectangle-3-Copy-19" fill="#FFFFFF" x="97.0568503" y="28.9641591" width="20.0254971" height="8.06256644" rx="4.03128322"></rect>
            <rect id="Rectangle-3-Copy-20" fill="#E6F0FA" x="156.974058" y="36.8923495" width="20.0254971" height="8.06256644" rx="4.03128322"></rect>
            <path d="M47.9581801,72.5020179 L59.9211108,72.5020179 C62.147527,72.5020179 63.952394,74.3068849 63.952394,76.5333011 C63.952394,78.7597174 62.147527,80.5645844 59.9211108,80.5645844 L47.9581801,80.5645844 C45.7317639,80.5645844 43.9268969,78.7597174 43.9268969,76.5333011 C43.9268969,74.3068849 45.7317639,72.5020179 47.9581801,72.5020179 Z" id="Rectangle-3-Copy-22" fill="#E6F0FA"></path>
            <path d="M108.291295,9.67507973 L120.254226,9.67507973 C122.480642,9.67507973 124.285509,11.4799467 124.285509,13.706363 C124.285509,15.9327792 122.480642,17.7376462 120.254226,17.7376462 L108.291295,17.7376462 C106.064879,17.7376462 104.260012,15.9327792 104.260012,13.706363 C104.260012,11.4799467 106.064879,9.67507973 108.291295,9.67507973 Z" id="Rectangle-3-Copy-21" fill="#E6F0FA"></path>
        </g>
        <path d="M281,168 L309.765246,168 C314.735809,168 318.765246,163.970563 318.765246,159 L318.765246,72 C318.765246,67.0294373 322.794683,63 327.765246,63 L340,63 L340,63" id="Path-3" stroke="#D4D8DC" stroke-width="3"></path>
        <path d="M281,273 L309.765246,273 C314.735809,273 318.765246,268.970563 318.765246,264 L318.765246,177 C318.765246,172.029437 322.794683,168 327.765246,168 L340,168 L340,168" id="Path-3-Copy" stroke="#D4D8DC" stroke-width="3" transform="translate(310.500000, 220.500000) scale(1, -1) translate(-310.500000, -220.500000) "></path>
        <g id="Group-7" transform="translate(374.000000, 58.000000)">
            <g id="Group-14-Copy">
                <path d="M14.6290092,42.2029587 L28.8406523,42.2029587 L28.8406523,82.3608789 C28.8406523,86.2853158 25.6592676,89.4667005 21.7348308,89.4667005 C17.8103939,89.4667005 14.6290092,86.2853158 14.6290092,82.3608789 L14.6290092,42.2029587 L14.6290092,42.2029587 Z" id="Rectangle-4-Copy-3" fill="#1B2653" transform="translate(21.734831, 65.834830) rotate(-315.000000) translate(-21.734831, -65.834830) "></path>
                <path d="M50.0024234,22.4999994 L117.188269,22.4999994 C122.551908,22.4999994 126.899997,26.848088 126.899997,32.2117272 C126.899997,37.5753663 122.551908,41.9234549 117.188269,41.9234549 L50.0024234,41.9234549 C49.2278856,41.9234549 48.5999987,41.295568 48.5999987,40.5210303 L48.5999987,23.9024241 C48.5999987,23.1278863 49.2278856,22.4999994 50.0024234,22.4999994 Z" id="Rectangle-5-Copy-5" fill="#E6F0FA"></path>
                <ellipse id="Oval-5-Copy-5" fill="#4F8DF9" cx="58.5920512" cy="33.4677668" rx="33.3920519" ry="33.4677668"></ellipse>
                <ellipse id="Oval-5-Copy-6" fill="#FFFFFF" cx="58.3554151" cy="34.1081463" rx="23.255416" ry="23.3081466"></ellipse>
                <path d="M77.0016845,20.6988886 C79.9226432,24.36741 81.6612362,28.972455 81.6612362,33.9726941 C81.6612362,37.856777 80.612193,41.5024053 78.7748092,44.6558587 L63.2777962,44.6555946 C56.6626413,44.6555946 51.2999986,39.292952 51.2999986,32.677797 C51.2999986,26.0626421 56.6626413,20.6999995 63.2777962,20.6999995 Z" id="Combined-Shape-Copy-3" fill="#E6F0FA"></path>
                <path d="M61.2689741,25.1999993 C61.8041246,25.1999993 62.2379497,25.6338245 62.2379497,26.168975 L62.2379497,39.7697881 C62.2379497,40.3049386 61.8041246,40.7387637 61.2689741,40.7387637 C60.7338236,40.7387637 60.2999984,40.3049386 60.2999984,39.7697881 L60.2999984,26.168975 C60.2999984,25.6338245 60.7338236,25.1999993 61.2689741,25.1999993 Z" id="Rectangle-15-Copy-4" fill="#8396A6"></path>
                <path d="M39.9515376,37.0606977 C37.1949511,23.8008242 51.2778113,12.9694855 60.2714798,14.5544436" id="Path-13-Copy-2" stroke="#E9F3FB" stroke-width="1.9478122" stroke-linecap="round"></path>
                <g id="Group-5-Copy-5" transform="translate(69.299998, 57.599998)">
                    <path d="M30.5459761,0 L87.0933726,0 C93.1721636,-2.89301263e-15 98.0999974,4.92783377 98.0999974,11.0066248 C98.0999974,17.0854158 93.1721636,22.0132496 87.0933726,22.0132496 L30.5459761,22.0132496 C24.4671851,22.0132496 19.5393513,17.0854158 19.5393513,11.0066248 C19.5393513,4.92783377 24.4671851,4.66936947e-15 30.5459761,0 Z" id="Rectangle-3-Copy-10" fill="#FFC100"></path>
                    <path d="M19.1066246,13.5964189 L65.3792989,13.5964189 C71.4580899,13.5964189 76.3859237,18.5242526 76.3859237,24.6030437 C76.3859237,30.6818347 71.4580899,35.6096684 65.3792989,35.6096684 L19.1066246,35.6096684 C13.0278336,35.6096684 8.09999979,30.6818347 8.09999979,24.6030437 C8.09999979,18.5242526 13.0278336,13.5964189 19.1066246,13.5964189 Z" id="Rectangle-3-Copy-11" fill="#FF9900"></path>
                    <path d="M67.663375,13.5964189 C72.3118623,13.5964189 76.0802057,17.3647623 76.0802057,22.0132496 L30.8862419,22.0132496 C25.6996117,22.0132496 21.3508876,18.4257473 20.1861181,13.5967913 L67.663375,13.5964189 Z" id="Combined-Shape" fill="#FF8100"></path>
                    <path d="M29.8809507,4.53213962 L44.7268597,4.53213962 C46.1571634,4.53213962 47.3166537,5.69162992 47.3166537,7.12193369 C47.3166537,8.55223746 46.1571634,9.71172776 44.7268597,9.71172776 L29.8809507,9.71172776 C28.4506469,9.71172776 27.2911566,8.55223746 27.2911566,7.12193369 C27.2911566,5.69162992 28.4506469,4.53213962 29.8809507,4.53213962 Z" id="Rectangle-3-Copy-11" fill="#FF9900"></path>
                    <path d="M52.4903829,4.53213962 L67.3362919,4.53213962 C68.7665956,4.53213962 69.9260859,5.69162992 69.9260859,7.12193369 C69.9260859,8.55223746 68.7665956,9.71172776 67.3362919,9.71172776 L52.4903829,9.71172776 C51.0600791,9.71172776 49.9005888,8.55223746 49.9005888,7.12193369 C49.9005888,5.69162992 51.0600791,4.53213962 52.4903829,4.53213962 Z" id="Rectangle-3-Copy-14" fill="#FF9900"></path>
                    <path d="M75.0998151,4.53213962 L84.7778539,4.53213962 C86.2081576,4.53213962 87.3676479,5.69162992 87.3676479,7.12193369 C87.3676479,8.55223746 86.2081576,9.71172776 84.7778539,9.71172776 L75.0998151,9.71172776 C73.6695114,9.71172776 72.5100211,8.55223746 72.5100211,7.12193369 C72.5100211,5.69162992 73.6695114,4.53213962 75.0998151,4.53213962 Z" id="Rectangle-3-Copy-15" fill="#FF9900"></path>
                    <path d="M78.9757178,12.9489703 L85.4238377,12.9489703 C86.8541414,12.9489703 88.0136317,14.1084606 88.0136317,15.5387644 C88.0136317,16.9690682 86.8541414,18.1285585 85.4238377,18.1285585 L78.9757178,18.1285585 C77.545414,18.1285585 76.3859237,16.9690682 76.3859237,15.5387644 C76.3859237,14.1084606 77.545414,12.9489703 78.9757178,12.9489703 Z" id="Rectangle-3-Copy-16" fill="#FF9900"></path>
                </g>
                <rect id="Rectangle-3-Copy-30" fill="#FFFFFF" x="97.1999974" y="28.7999992" width="20.0254971" height="8.06256644" rx="4.03128322"></rect>
                <path d="M48.1312821,71.9999981 L60.0942127,71.9999981 C62.320629,71.9999981 64.1254959,73.8048651 64.1254959,76.0312813 C64.1254959,78.2576976 62.320629,80.0625645 60.0942127,80.0625645 L48.1312821,80.0625645 C45.9048658,80.0625645 44.0999988,78.2576976 44.0999988,76.0312813 C44.0999988,73.8048651 45.9048658,71.9999981 48.1312821,71.9999981 Z" id="Rectangle-3-Copy-32" fill="#E6F0FA"></path>
                <g id="Group-13-Copy" transform="translate(132.299996, 17.100000)">
                    <rect id="Rectangle-3-Copy-13" fill="#FFC100" x="0" y="0" width="32.3999991" height="30.5999992" rx="3.5999999"></rect>
                    <path d="M16.2856279,21.5102789 L12.7563485,23.9180013 C12.0665306,24.3886045 11.1258234,24.2108958 10.6552202,23.5210779 C10.4171588,23.1721236 10.3359304,22.7394919 10.431206,22.3279522 L11.4959516,17.7288155 L11.4959516,17.7288155 L8.00867959,14.5626835 C7.39042625,14.0013646 7.34427177,13.0451324 7.90559067,12.426879 C8.16623963,12.1397925 8.52722261,11.9638176 8.91393269,11.9353244 L13.3254451,11.6102792 L13.3254451,11.6102792 L14.8673722,7.43781155 C15.1568321,6.65453059 16.0264604,6.25420953 16.8097414,6.54366945 C17.2240933,6.69679238 17.5507606,7.02345961 17.7038835,7.43781155 L19.2458106,11.6102792 L19.2458106,11.6102792 L23.657323,11.9353244 C24.4901201,11.9966858 25.1154922,12.7215445 25.0541308,13.5543415 C25.0256375,13.9410516 24.8496627,14.3020346 24.5625761,14.5626835 L21.0753042,17.7288155 L21.0753042,17.7288155 L22.1400498,22.3279522 C22.3283917,23.1414897 21.8215706,23.9536736 21.008033,24.1420156 C20.5964932,24.2372911 20.1638616,24.1560628 19.8149072,23.9180013 L16.2856279,21.5102789 L16.2856279,21.5102789 Z" id="Star-2-Copy" fill="#FFFFFF"></path>
                </g>
            </g>
            <path d="M15.2999996,170.999995 L29.6999992,170.999995 L29.6999992,211.499994 C29.6999992,215.476444 26.4764495,218.699994 22.4999994,218.699994 C18.5235493,218.699994 15.2999996,215.476444 15.2999996,211.499994 L15.2999996,170.999995 L15.2999996,170.999995 Z" id="Rectangle-4-Copy-4" fill="#1B2653" transform="translate(22.499999, 194.849995) rotate(-315.000000) translate(-22.499999, -194.849995) "></path>
            <path d="M50.9024234,151.199996 L117.899997,151.199996 C123.367616,151.199996 127.799997,155.632377 127.799997,161.099996 C127.799997,166.567615 123.367616,170.999995 117.899997,170.999995 L50.9024234,170.999995 C50.1278856,170.999995 49.4999987,170.372109 49.4999987,169.597571 L49.4999987,152.602421 C49.4999987,151.827883 50.1278856,151.199996 50.9024234,151.199996 Z" id="Rectangle-5-Copy-6" fill="#E6F0FA"></path>
            <circle id="Oval-5-Copy-7" fill="#4F8DF9" cx="59.3999984" cy="161.999996" r="33.2999991"></circle>
            <circle id="Oval-5-Copy-8" fill="#FFFFFF" cx="59.3999984" cy="162.899996" r="23.3999994"></circle>
            <path d="M78.1037793,149.398839 C81.047723,153.120106 82.7999978,157.791367 82.7999978,162.863506 C82.7999978,166.803316 81.7427654,170.501257 79.891031,173.699983 L64.3499957,173.69999 C57.6397376,173.69999 52.1999986,168.260251 52.1999986,161.549993 C52.1999986,154.839735 57.6397376,149.399996 64.3499957,149.399996 Z" id="Combined-Shape-Copy-4" fill="#E6F0FA"></path>
            <path d="M62.0999984,153.899996 C62.5970546,153.899996 62.9999983,154.30294 62.9999983,154.799996 L62.9999983,168.299996 C62.9999983,168.797052 62.5970546,169.199996 62.0999984,169.199996 C61.6029421,169.199996 61.1999984,168.797052 61.1999984,168.299996 L61.1999984,154.799996 C61.1999984,154.30294 61.6029421,153.899996 62.0999984,153.899996 Z" id="Rectangle-15-Copy-5" fill="#8396A6"></path>
            <path d="M40.8520226,165.599996 C38.091633,152.434155 52.1939221,141.679627 61.1999984,143.253345" id="Path-13-Copy-3" stroke="#E9F3FB" stroke-width="1.9478122" stroke-linecap="round"></path>
            <g id="Group-5-Copy-6" transform="translate(70.199998, 186.299995)">
                <path d="M30.5459761,0 L87.0933726,0 C93.1721636,-2.89301263e-15 98.0999974,4.92783377 98.0999974,11.0066248 C98.0999974,17.0854158 93.1721636,22.0132496 87.0933726,22.0132496 L30.5459761,22.0132496 C24.4671851,22.0132496 19.5393513,17.0854158 19.5393513,11.0066248 C19.5393513,4.92783377 24.4671851,4.66936947e-15 30.5459761,0 Z" id="Rectangle-3-Copy-10" fill="#FFC100"></path>
                <path d="M19.1066246,13.5964189 L65.3792989,13.5964189 C71.4580899,13.5964189 76.3859237,18.5242526 76.3859237,24.6030437 C76.3859237,30.6818347 71.4580899,35.6096684 65.3792989,35.6096684 L19.1066246,35.6096684 C13.0278336,35.6096684 8.09999979,30.6818347 8.09999979,24.6030437 C8.09999979,18.5242526 13.0278336,13.5964189 19.1066246,13.5964189 Z" id="Rectangle-3-Copy-11" fill="#FF9900"></path>
                <path d="M67.663375,13.5964189 C72.3118623,13.5964189 76.0802057,17.3647623 76.0802057,22.0132496 L30.8862419,22.0132496 C25.6996117,22.0132496 21.3508876,18.4257473 20.1861181,13.5967913 L67.663375,13.5964189 Z" id="Combined-Shape" fill="#FF8100"></path>
                <path d="M29.8809507,4.53213962 L44.7268597,4.53213962 C46.1571634,4.53213962 47.3166537,5.69162992 47.3166537,7.12193369 C47.3166537,8.55223746 46.1571634,9.71172776 44.7268597,9.71172776 L29.8809507,9.71172776 C28.4506469,9.71172776 27.2911566,8.55223746 27.2911566,7.12193369 C27.2911566,5.69162992 28.4506469,4.53213962 29.8809507,4.53213962 Z" id="Rectangle-3-Copy-11" fill="#FF9900"></path>
                <path d="M52.4903829,4.53213962 L67.3362919,4.53213962 C68.7665956,4.53213962 69.9260859,5.69162992 69.9260859,7.12193369 C69.9260859,8.55223746 68.7665956,9.71172776 67.3362919,9.71172776 L52.4903829,9.71172776 C51.0600791,9.71172776 49.9005888,8.55223746 49.9005888,7.12193369 C49.9005888,5.69162992 51.0600791,4.53213962 52.4903829,4.53213962 Z" id="Rectangle-3-Copy-14" fill="#FF9900"></path>
                <path d="M75.0998151,4.53213962 L84.7778539,4.53213962 C86.2081576,4.53213962 87.3676479,5.69162992 87.3676479,7.12193369 C87.3676479,8.55223746 86.2081576,9.71172776 84.7778539,9.71172776 L75.0998151,9.71172776 C73.6695114,9.71172776 72.5100211,8.55223746 72.5100211,7.12193369 C72.5100211,5.69162992 73.6695114,4.53213962 75.0998151,4.53213962 Z" id="Rectangle-3-Copy-15" fill="#FF9900"></path>
                <path d="M78.9757178,12.9489703 L85.4238377,12.9489703 C86.8541414,12.9489703 88.0136317,14.1084606 88.0136317,15.5387644 C88.0136317,16.9690682 86.8541414,18.1285585 85.4238377,18.1285585 L78.9757178,18.1285585 C77.545414,18.1285585 76.3859237,16.9690682 76.3859237,15.5387644 C76.3859237,14.1084606 77.545414,12.9489703 78.9757178,12.9489703 Z" id="Rectangle-3-Copy-16" fill="#FF9900"></path>
            </g>
            <rect id="Rectangle-3-Copy-33" fill="#FFFFFF" x="98.0999974" y="157.499996" width="19.7999995" height="8.09999979" rx="4.04999989"></rect>
            <path d="M49.0499987,200.699995 L60.7499984,200.699995 C62.9867516,200.699995 64.7999983,202.513241 64.7999983,204.749995 C64.7999983,206.986748 62.9867516,208.799994 60.7499984,208.799994 L49.0499987,208.799994 C46.8132455,208.799994 44.9999988,206.986748 44.9999988,204.749995 C44.9999988,202.513241 46.8132455,200.699995 49.0499987,200.699995 Z" id="Rectangle-3-Copy-34" fill="#E6F0FA"></path>
            <g id="Group-12" transform="translate(133.199996, 146.699996)">
                <circle id="Oval-2-Copy" fill="#FFC100" cx="14.3999996" cy="14.3999996" r="14.3999996"></circle>
                <polyline id="Path-4" stroke="#FFFFFF" stroke-width="2.69999993" stroke-linecap="round" points="14.3999996 5.39999986 14.3999996 15.2999996 22.4999994 15.2999996"></polyline>
            </g>
        </g>
        <g id="Group-6" transform="translate(609.000000, 58.000000)">
            <g id="Group-2-Copy">
                <path d="M14.6290092,42.2029587 L28.8406523,42.2029587 L28.8406523,82.3608789 C28.8406523,86.2853158 25.6592676,89.4667005 21.7348308,89.4667005 C17.8103939,89.4667005 14.6290092,86.2853158 14.6290092,82.3608789 L14.6290092,42.2029587 L14.6290092,42.2029587 Z" id="Rectangle-4-Copy" fill="#1B2653" transform="translate(21.734831, 65.834830) rotate(-315.000000) translate(-21.734831, -65.834830) "></path>
                <path d="M50.0024234,21.5999994 L140.953708,21.5999994 C146.317347,21.5999994 150.665436,25.9480881 150.665436,31.3117272 C150.665436,36.6753663 146.317347,41.0234549 140.953708,41.0234549 L50.0024234,41.0234549 C49.2278856,41.0234549 48.5999987,40.395568 48.5999987,39.6210303 L48.5999987,23.0024241 C48.5999987,22.2278863 49.2278856,21.5999994 50.0024234,21.5999994 Z" id="Rectangle-5-Copy" fill="#E6F0FA"></path>
                <ellipse id="Oval-5-Copy" fill="#4F8DF9" cx="58.5920512" cy="33.4677668" rx="33.3920519" ry="33.4677668"></ellipse>
                <ellipse id="Oval-5-Copy-2" fill="#FFFFFF" cx="58.3554151" cy="33.2081464" rx="23.255416" ry="23.3081466"></ellipse>
                <path d="M77.0016845,19.7988886 C79.9226432,23.4674101 81.6612362,28.072455 81.6612362,33.0726941 C81.6612362,36.956777 80.612193,40.6024053 78.7748092,43.7558588 L63.2777962,43.7555946 C56.6626413,43.7555946 51.2999986,38.392952 51.2999986,31.777797 C51.2999986,25.1626421 56.6626413,19.7999995 63.2777962,19.7999995 Z" id="Combined-Shape-Copy" fill="#E6F0FA"></path>
                <path d="M61.2689741,24.2999994 C61.8041246,24.2999994 62.2379497,24.7338245 62.2379497,25.268975 L62.2379497,38.8697881 C62.2379497,39.4049386 61.8041246,39.8387638 61.2689741,39.8387638 C60.7338236,39.8387638 60.2999984,39.4049386 60.2999984,38.8697881 L60.2999984,25.268975 C60.2999984,24.7338245 60.7338236,24.2999994 61.2689741,24.2999994 Z" id="Rectangle-15-Copy-2" fill="#8396A6"></path>
                <path d="M39.9515376,37.0606977 C37.1949511,23.8008242 51.2778113,12.9694855 60.2714798,14.5544436" id="Path-13" stroke="#E9F3FB" stroke-width="1.9478122" stroke-linecap="round"></path>
                <g id="Group-5" transform="translate(68.399998, 48.599999)">
                    <path d="M30.5459761,0 L101.493372,0 C107.572163,-4.66936947e-15 112.499997,4.92783377 112.499997,11.0066248 C112.499997,17.0854158 107.572163,22.0132496 101.493372,22.0132496 L30.5459761,22.0132496 C24.4671851,22.0132496 19.5393513,17.0854158 19.5393513,11.0066248 C19.5393513,4.92783377 24.4671851,1.11665579e-15 30.5459761,0 Z" id="Rectangle-3-Copy-10" fill="#FFC100"></path>
                    <path d="M19.1066246,13.5964189 L65.3792989,13.5964189 C71.4580899,13.5964189 76.3859237,18.5242526 76.3859237,24.6030437 C76.3859237,30.6818347 71.4580899,35.6096684 65.3792989,35.6096684 L19.1066246,35.6096684 C13.0278336,35.6096684 8.09999979,30.6818347 8.09999979,24.6030437 C8.09999979,18.5242526 13.0278336,13.5964189 19.1066246,13.5964189 Z" id="Rectangle-3-Copy-11" fill="#FF9900"></path>
                    <path d="M67.663375,13.5964189 C72.3118623,13.5964189 76.0802057,17.3647623 76.0802057,22.0132496 L30.8862419,22.0132496 C25.6996117,22.0132496 21.3508876,18.4257473 20.1861181,13.5967913 L67.663375,13.5964189 Z" id="Combined-Shape" fill="#FF8100"></path>
                    <path d="M29.8809507,4.53213962 L44.7268597,4.53213962 C46.1571634,4.53213962 47.3166537,5.69162992 47.3166537,7.12193369 C47.3166537,8.55223746 46.1571634,9.71172776 44.7268597,9.71172776 L29.8809507,9.71172776 C28.4506469,9.71172776 27.2911566,8.55223746 27.2911566,7.12193369 C27.2911566,5.69162992 28.4506469,4.53213962 29.8809507,4.53213962 Z" id="Rectangle-3-Copy-11" fill="#FF9900"></path>
                    <path d="M52.4903829,4.53213962 L67.3362919,4.53213962 C68.7665956,4.53213962 69.9260859,5.69162992 69.9260859,7.12193369 C69.9260859,8.55223746 68.7665956,9.71172776 67.3362919,9.71172776 L52.4903829,9.71172776 C51.0600791,9.71172776 49.9005888,8.55223746 49.9005888,7.12193369 C49.9005888,5.69162992 51.0600791,4.53213962 52.4903829,4.53213962 Z" id="Rectangle-3-Copy-14" fill="#FF9900"></path>
                    <path d="M75.0998151,4.53213962 L84.7778539,4.53213962 C86.2081576,4.53213962 87.3676479,5.69162992 87.3676479,7.12193369 C87.3676479,8.55223746 86.2081576,9.71172776 84.7778539,9.71172776 L75.0998151,9.71172776 C73.6695114,9.71172776 72.5100211,8.55223746 72.5100211,7.12193369 C72.5100211,5.69162992 73.6695114,4.53213962 75.0998151,4.53213962 Z" id="Rectangle-3-Copy-15" fill="#FF9900"></path>
                    <path d="M78.9757178,12.9489703 L85.4238377,12.9489703 C86.8541414,12.9489703 88.0136317,14.1084606 88.0136317,15.5387644 C88.0136317,16.9690682 86.8541414,18.1285585 85.4238377,18.1285585 L78.9757178,18.1285585 C77.545414,18.1285585 76.3859237,16.9690682 76.3859237,15.5387644 C76.3859237,14.1084606 77.545414,12.9489703 78.9757178,12.9489703 Z" id="Rectangle-3-Copy-16" fill="#FF9900"></path>
                </g>
                <rect id="Rectangle-3-Copy-11" fill="#FFFFFF" x="122.399997" y="27.8999993" width="20.0254971" height="8.06256644" rx="4.03128322"></rect>
                <rect id="Rectangle-3-Copy-19" fill="#FFFFFF" x="97.1999974" y="27.8999993" width="20.0254971" height="8.06256644" rx="4.03128322"></rect>
                <rect id="Rectangle-3-Copy-20" fill="#E6F0FA" x="156.599996" y="35.999999" width="20.0254971" height="8.06256644" rx="4.03128322"></rect>
                <path d="M48.1312821,71.9999981 L60.0942127,71.9999981 C62.320629,71.9999981 64.1254959,73.8048651 64.1254959,76.0312813 C64.1254959,78.2576976 62.320629,80.0625645 60.0942127,80.0625645 L48.1312821,80.0625645 C45.9048658,80.0625645 44.0999988,78.2576976 44.0999988,76.0312813 C44.0999988,73.8048651 45.9048658,71.9999981 48.1312821,71.9999981 Z" id="Rectangle-3-Copy-22" fill="#E6F0FA"></path>
                <path d="M108.43128,8.99999976 L120.394211,8.99999976 C122.620627,8.99999976 124.425494,10.8048667 124.425494,13.031283 C124.425494,15.2576992 122.620627,17.0625662 120.394211,17.0625662 L108.43128,17.0625662 C106.204864,17.0625662 104.399997,15.2576992 104.399997,13.031283 C104.399997,10.8048667 106.204864,8.99999976 108.43128,8.99999976 Z" id="Rectangle-3-Copy-21" fill="#E6F0FA"></path>
                <path d="M166.991898,63.7996625 L164.62837,65.3611746 C163.93164,65.821483 162.993676,65.6298257 162.533367,64.933096 C162.302745,64.5840222 162.227069,64.1549935 162.324345,63.7480824 L163.035209,60.7744918 L163.035209,60.7744918 L160.713632,58.7332687 C160.086509,58.1818771 160.025117,57.2265021 160.576508,56.5993791 C160.838854,56.3010016 161.2081,56.1178743 161.604401,56.0895965 L164.54653,55.8796628 L164.54653,55.8796628 L165.579256,53.173345 C165.876972,52.3931646 166.750779,52.0020497 167.53096,52.2997653 C167.93326,52.4532826 168.251022,52.7710446 168.40454,53.173345 L169.437266,55.8796628 L169.437266,55.8796628 L172.379395,56.0895965 C173.212332,56.1490301 173.83938,56.8724393 173.779946,57.7053762 C173.751669,58.1016772 173.568541,58.4709234 173.270164,58.7332687 L170.948587,60.7744918 L170.948587,60.7744918 L171.659451,63.7480824 C171.853608,64.5602519 171.352609,65.3760403 170.54044,65.5701969 C170.133528,65.6674727 169.7045,65.5917972 169.355426,65.3611746 L166.991898,63.7996625 L166.991898,63.7996625 Z" id="Star-2-Copy-2" fill="#FFFFFF"></path>
            </g>
            <g id="Group-2-Copy-2" transform="translate(0.000000, 134.099996)">
                <path d="M14.6290092,42.2029587 L28.8406523,42.2029587 L28.8406523,82.3608789 C28.8406523,86.2853158 25.6592676,89.4667005 21.7348308,89.4667005 C17.8103939,89.4667005 14.6290092,86.2853158 14.6290092,82.3608789 L14.6290092,42.2029587 L14.6290092,42.2029587 Z" id="Rectangle-4-Copy" fill="#1B2653" transform="translate(21.734831, 65.834830) rotate(-315.000000) translate(-21.734831, -65.834830) "></path>
                <path d="M50.0024234,21.5999994 L140.953708,21.5999994 C146.317347,21.5999994 150.665436,25.9480881 150.665436,31.3117272 C150.665436,36.6753663 146.317347,41.0234549 140.953708,41.0234549 L50.0024234,41.0234549 C49.2278856,41.0234549 48.5999987,40.395568 48.5999987,39.6210303 L48.5999987,23.0024241 C48.5999987,22.2278863 49.2278856,21.5999994 50.0024234,21.5999994 Z" id="Rectangle-5-Copy" fill="#E6F0FA"></path>
                <ellipse id="Oval-5-Copy" fill="#4F8DF9" cx="58.5920512" cy="33.4677668" rx="33.3920519" ry="33.4677668"></ellipse>
                <ellipse id="Oval-5-Copy-2" fill="#FFFFFF" cx="58.3554151" cy="33.2081464" rx="23.255416" ry="23.3081466"></ellipse>
                <path d="M77.0016845,19.7988886 C79.9226432,23.4674101 81.6612362,28.072455 81.6612362,33.0726941 C81.6612362,36.956777 80.612193,40.6024053 78.7748092,43.7558588 L63.2777962,43.7555946 C56.6626413,43.7555946 51.2999986,38.392952 51.2999986,31.777797 C51.2999986,25.1626421 56.6626413,19.7999995 63.2777962,19.7999995 Z" id="Combined-Shape-Copy" fill="#E6F0FA"></path>
                <path d="M61.2689741,24.2999994 C61.8041246,24.2999994 62.2379497,24.7338245 62.2379497,25.268975 L62.2379497,38.8697881 C62.2379497,39.4049386 61.8041246,39.8387638 61.2689741,39.8387638 C60.7338236,39.8387638 60.2999984,39.4049386 60.2999984,38.8697881 L60.2999984,25.268975 C60.2999984,24.7338245 60.7338236,24.2999994 61.2689741,24.2999994 Z" id="Rectangle-15-Copy-2" fill="#8396A6"></path>
                <path d="M39.9515376,37.0606977 C37.1949511,23.8008242 51.2778113,12.9694855 60.2714798,14.5544436" id="Path-13" stroke="#E9F3FB" stroke-width="1.9478122" stroke-linecap="round"></path>
                <g id="Group-5" transform="translate(68.399998, 48.599999)">
                    <path d="M30.5459761,0 L87.0933726,0 C93.1721636,-2.89301263e-15 98.0999974,4.92783377 98.0999974,11.0066248 C98.0999974,17.0854158 93.1721636,22.0132496 87.0933726,22.0132496 L30.5459761,22.0132496 C24.4671851,22.0132496 19.5393513,17.0854158 19.5393513,11.0066248 C19.5393513,4.92783377 24.4671851,4.66936947e-15 30.5459761,0 Z" id="Rectangle-3-Copy-10" fill="#FFC100"></path>
                    <path d="M19.1066246,13.5964189 L65.3792989,13.5964189 C71.4580899,13.5964189 76.3859237,18.5242526 76.3859237,24.6030437 C76.3859237,30.6818347 71.4580899,35.6096684 65.3792989,35.6096684 L19.1066246,35.6096684 C13.0278336,35.6096684 8.09999979,30.6818347 8.09999979,24.6030437 C8.09999979,18.5242526 13.0278336,13.5964189 19.1066246,13.5964189 Z" id="Rectangle-3-Copy-11" fill="#FF9900"></path>
                    <path d="M67.663375,13.5964189 C72.3118623,13.5964189 76.0802057,17.3647623 76.0802057,22.0132496 L30.8862419,22.0132496 C25.6996117,22.0132496 21.3508876,18.4257473 20.1861181,13.5967913 L67.663375,13.5964189 Z" id="Combined-Shape" fill="#FF8100"></path>
                    <path d="M29.8809507,4.53213962 L44.7268597,4.53213962 C46.1571634,4.53213962 47.3166537,5.69162992 47.3166537,7.12193369 C47.3166537,8.55223746 46.1571634,9.71172776 44.7268597,9.71172776 L29.8809507,9.71172776 C28.4506469,9.71172776 27.2911566,8.55223746 27.2911566,7.12193369 C27.2911566,5.69162992 28.4506469,4.53213962 29.8809507,4.53213962 Z" id="Rectangle-3-Copy-11" fill="#FF9900"></path>
                    <path d="M52.4903829,4.53213962 L67.3362919,4.53213962 C68.7665956,4.53213962 69.9260859,5.69162992 69.9260859,7.12193369 C69.9260859,8.55223746 68.7665956,9.71172776 67.3362919,9.71172776 L52.4903829,9.71172776 C51.0600791,9.71172776 49.9005888,8.55223746 49.9005888,7.12193369 C49.9005888,5.69162992 51.0600791,4.53213962 52.4903829,4.53213962 Z" id="Rectangle-3-Copy-14" fill="#FF9900"></path>
                    <path d="M75.0998151,4.53213962 L84.7778539,4.53213962 C86.2081576,4.53213962 87.3676479,5.69162992 87.3676479,7.12193369 C87.3676479,8.55223746 86.2081576,9.71172776 84.7778539,9.71172776 L75.0998151,9.71172776 C73.6695114,9.71172776 72.5100211,8.55223746 72.5100211,7.12193369 C72.5100211,5.69162992 73.6695114,4.53213962 75.0998151,4.53213962 Z" id="Rectangle-3-Copy-15" fill="#FF9900"></path>
                    <path d="M78.9757178,12.9489703 L85.4238377,12.9489703 C86.8541414,12.9489703 88.0136317,14.1084606 88.0136317,15.5387644 C88.0136317,16.9690682 86.8541414,18.1285585 85.4238377,18.1285585 L78.9757178,18.1285585 C77.545414,18.1285585 76.3859237,16.9690682 76.3859237,15.5387644 C76.3859237,14.1084606 77.545414,12.9489703 78.9757178,12.9489703 Z" id="Rectangle-3-Copy-16" fill="#FF9900"></path>
                </g>
                <rect id="Rectangle-3-Copy-11" fill="#FFFFFF" x="122.399997" y="27.8999993" width="20.0254971" height="8.06256644" rx="4.03128322"></rect>
                <rect id="Rectangle-3-Copy-19" fill="#FFFFFF" x="97.1999974" y="27.8999993" width="20.0254971" height="8.06256644" rx="4.03128322"></rect>
                <rect id="Rectangle-3-Copy-20" fill="#E6F0FA" x="156.599996" y="35.999999" width="20.0254971" height="8.06256644" rx="4.03128322"></rect>
                <path d="M48.1312821,71.9999981 L60.0942127,71.9999981 C62.320629,71.9999981 64.1254959,73.8048651 64.1254959,76.0312813 C64.1254959,78.2576976 62.320629,80.0625645 60.0942127,80.0625645 L48.1312821,80.0625645 C45.9048658,80.0625645 44.0999988,78.2576976 44.0999988,76.0312813 C44.0999988,73.8048651 45.9048658,71.9999981 48.1312821,71.9999981 Z" id="Rectangle-3-Copy-22" fill="#E6F0FA"></path>
                <path d="M108.43128,8.99999976 L120.394211,8.99999976 C122.620627,8.99999976 124.425494,10.8048667 124.425494,13.031283 C124.425494,15.2576992 122.620627,17.0625662 120.394211,17.0625662 L108.43128,17.0625662 C106.204864,17.0625662 104.399997,15.2576992 104.399997,13.031283 C104.399997,10.8048667 106.204864,8.99999976 108.43128,8.99999976 Z" id="Rectangle-3-Copy-21" fill="#E6F0FA"></path>
            </g>
            <g id="Group-12-Copy" transform="translate(170.999995, 182.699995)">
                <circle id="Oval-2-Copy" fill="#FFC100" cx="11.6999997" cy="11.6999997" r="11.6999997"></circle>
                <polyline id="Path-4" stroke="#FFFFFF" stroke-width="2.69999993" stroke-linecap="round" points="11.6999997 4.49999988 11.6999997 12.5999997 17.9999995 12.5999997"></polyline>
            </g>
        </g>
        <g id="Group" transform="translate(1066.000000, 62.000000)">
            <path d="M15,171.899995 L29.3999996,171.899995 L29.3999996,212.399994 C29.3999996,216.376444 26.1764499,219.599994 22.1999998,219.599994 C18.2235497,219.599994 15,216.376444 15,212.399994 L15,171.899995 L15,171.899995 Z" id="Rectangle-4-Copy-6" fill="#1B2653" transform="translate(22.200000, 195.749995) rotate(-315.000000) translate(-22.200000, -195.749995) "></path>
            <path d="M15,42.2999989 L29.3999996,42.2999989 L29.3999996,82.7999978 C29.3999996,86.7764479 26.1764499,89.9999976 22.1999998,89.9999976 C18.2235497,89.9999976 15,86.7764479 15,82.7999978 L15,42.2999989 L15,42.2999989 Z" id="Rectangle-4-Copy-7" fill="#1B2653" transform="translate(22.200000, 66.149998) rotate(-315.000000) translate(-22.200000, -66.149998) "></path>
            <path d="M50.6024238,151.199996 L140.999997,151.199996 C146.467616,151.199996 150.899996,155.632377 150.899996,161.099996 C150.899996,166.567615 146.467616,170.999995 140.999997,170.999995 L50.6024238,170.999995 C49.827886,170.999995 49.1999991,170.372109 49.1999991,169.597571 L49.1999991,152.602421 C49.1999991,151.827883 49.827886,151.199996 50.6024238,151.199996 Z" id="Rectangle-5-Copy-3" fill="#E6F0FA"></path>
            <path d="M50.6024238,21.5999994 L140.999997,21.5999994 C146.467616,21.5999994 150.899996,26.0323803 150.899996,31.4999992 C150.899996,36.967618 146.467616,41.3999989 140.999997,41.3999989 L50.6024238,41.3999989 C49.827886,41.3999989 49.1999991,40.772112 49.1999991,39.9975742 L49.1999991,23.0024241 C49.1999991,22.2278863 49.827886,21.5999994 50.6024238,21.5999994 Z" id="Rectangle-5-Copy-7" fill="#E6F0FA"></path>
            <circle id="Oval-5-Copy-11" fill="#4F8DF9" cx="59.0999988" cy="162.899996" r="33.2999991"></circle>
            <circle id="Oval-5-Copy-12" fill="#4F8DF9" cx="59.0999988" cy="33.2999991" r="33.2999991"></circle>
            <circle id="Oval-5-Copy-13" fill="#FFFFFF" cx="59.0999988" cy="162.899996" r="23.3999994"></circle>
            <circle id="Oval-5-Copy-14" fill="#FFFFFF" cx="59.0999988" cy="33.2999991" r="23.3999994"></circle>
            <g id="Group-5-Copy-3" transform="translate(68.999999, 178.199995)">
                <path d="M30.5459761,0 L87.0933726,0 C93.1721636,-2.89301263e-15 98.0999974,4.92783377 98.0999974,11.0066248 C98.0999974,17.0854158 93.1721636,22.0132496 87.0933726,22.0132496 L30.5459761,22.0132496 C24.4671851,22.0132496 19.5393513,17.0854158 19.5393513,11.0066248 C19.5393513,4.92783377 24.4671851,4.66936947e-15 30.5459761,0 Z" id="Rectangle-3-Copy-10" fill="#FFC100"></path>
                <path d="M19.1066246,13.5964189 L65.3792989,13.5964189 C71.4580899,13.5964189 76.3859237,18.5242526 76.3859237,24.6030437 C76.3859237,30.6818347 71.4580899,35.6096684 65.3792989,35.6096684 L19.1066246,35.6096684 C13.0278336,35.6096684 8.09999979,30.6818347 8.09999979,24.6030437 C8.09999979,18.5242526 13.0278336,13.5964189 19.1066246,13.5964189 Z" id="Rectangle-3-Copy-11" fill="#FF9900"></path>
                <path d="M67.663375,13.5964189 C72.3118623,13.5964189 76.0802057,17.3647623 76.0802057,22.0132496 L30.8862419,22.0132496 C25.6996117,22.0132496 21.3508876,18.4257473 20.1861181,13.5967913 L67.663375,13.5964189 Z" id="Combined-Shape" fill="#FF8100"></path>
                <path d="M29.8809507,4.53213962 L44.7268597,4.53213962 C46.1571634,4.53213962 47.3166537,5.69162992 47.3166537,7.12193369 C47.3166537,8.55223746 46.1571634,9.71172776 44.7268597,9.71172776 L29.8809507,9.71172776 C28.4506469,9.71172776 27.2911566,8.55223746 27.2911566,7.12193369 C27.2911566,5.69162992 28.4506469,4.53213962 29.8809507,4.53213962 Z" id="Rectangle-3-Copy-11" fill="#FF9900"></path>
                <path d="M52.4903829,4.53213962 L67.3362919,4.53213962 C68.7665956,4.53213962 69.9260859,5.69162992 69.9260859,7.12193369 C69.9260859,8.55223746 68.7665956,9.71172776 67.3362919,9.71172776 L52.4903829,9.71172776 C51.0600791,9.71172776 49.9005888,8.55223746 49.9005888,7.12193369 C49.9005888,5.69162992 51.0600791,4.53213962 52.4903829,4.53213962 Z" id="Rectangle-3-Copy-14" fill="#FF9900"></path>
                <path d="M75.0998151,4.53213962 L84.7778539,4.53213962 C86.2081576,4.53213962 87.3676479,5.69162992 87.3676479,7.12193369 C87.3676479,8.55223746 86.2081576,9.71172776 84.7778539,9.71172776 L75.0998151,9.71172776 C73.6695114,9.71172776 72.5100211,8.55223746 72.5100211,7.12193369 C72.5100211,5.69162992 73.6695114,4.53213962 75.0998151,4.53213962 Z" id="Rectangle-3-Copy-15" fill="#FF9900"></path>
                <path d="M78.9757178,12.9489703 L85.4238377,12.9489703 C86.8541414,12.9489703 88.0136317,14.1084606 88.0136317,15.5387644 C88.0136317,16.9690682 86.8541414,18.1285585 85.4238377,18.1285585 L78.9757178,18.1285585 C77.545414,18.1285585 76.3859237,16.9690682 76.3859237,15.5387644 C76.3859237,14.1084606 77.545414,12.9489703 78.9757178,12.9489703 Z" id="Rectangle-3-Copy-16" fill="#FF9900"></path>
            </g>
            <g id="Group-5-Copy-7" transform="translate(68.999999, 48.599999)">
                <path d="M30.5459761,0 L87.0933726,0 C93.1721636,-2.89301263e-15 98.0999974,4.92783377 98.0999974,11.0066248 C98.0999974,17.0854158 93.1721636,22.0132496 87.0933726,22.0132496 L30.5459761,22.0132496 C24.4671851,22.0132496 19.5393513,17.0854158 19.5393513,11.0066248 C19.5393513,4.92783377 24.4671851,4.66936947e-15 30.5459761,0 Z" id="Rectangle-3-Copy-10" fill="#FFC100"></path>
                <path d="M19.1066246,13.5964189 L65.3792989,13.5964189 C71.4580899,13.5964189 76.3859237,18.5242526 76.3859237,24.6030437 C76.3859237,30.6818347 71.4580899,35.6096684 65.3792989,35.6096684 L19.1066246,35.6096684 C13.0278336,35.6096684 8.09999979,30.6818347 8.09999979,24.6030437 C8.09999979,18.5242526 13.0278336,13.5964189 19.1066246,13.5964189 Z" id="Rectangle-3-Copy-11" fill="#FF9900"></path>
                <path d="M67.663375,13.5964189 C72.3118623,13.5964189 76.0802057,17.3647623 76.0802057,22.0132496 L30.8862419,22.0132496 C25.6996117,22.0132496 21.3508876,18.4257473 20.1861181,13.5967913 L67.663375,13.5964189 Z" id="Combined-Shape" fill="#FF8100"></path>
                <path d="M29.8809507,4.53213962 L44.7268597,4.53213962 C46.1571634,4.53213962 47.3166537,5.69162992 47.3166537,7.12193369 C47.3166537,8.55223746 46.1571634,9.71172776 44.7268597,9.71172776 L29.8809507,9.71172776 C28.4506469,9.71172776 27.2911566,8.55223746 27.2911566,7.12193369 C27.2911566,5.69162992 28.4506469,4.53213962 29.8809507,4.53213962 Z" id="Rectangle-3-Copy-11" fill="#FF9900"></path>
                <path d="M52.4903829,4.53213962 L67.3362919,4.53213962 C68.7665956,4.53213962 69.9260859,5.69162992 69.9260859,7.12193369 C69.9260859,8.55223746 68.7665956,9.71172776 67.3362919,9.71172776 L52.4903829,9.71172776 C51.0600791,9.71172776 49.9005888,8.55223746 49.9005888,7.12193369 C49.9005888,5.69162992 51.0600791,4.53213962 52.4903829,4.53213962 Z" id="Rectangle-3-Copy-14" fill="#FF9900"></path>
                <path d="M75.0998151,4.53213962 L84.7778539,4.53213962 C86.2081576,4.53213962 87.3676479,5.69162992 87.3676479,7.12193369 C87.3676479,8.55223746 86.2081576,9.71172776 84.7778539,9.71172776 L75.0998151,9.71172776 C73.6695114,9.71172776 72.5100211,8.55223746 72.5100211,7.12193369 C72.5100211,5.69162992 73.6695114,4.53213962 75.0998151,4.53213962 Z" id="Rectangle-3-Copy-15" fill="#FF9900"></path>
                <path d="M78.9757178,12.9489703 L85.4238377,12.9489703 C86.8541414,12.9489703 88.0136317,14.1084606 88.0136317,15.5387644 C88.0136317,16.9690682 86.8541414,18.1285585 85.4238377,18.1285585 L78.9757178,18.1285585 C77.545414,18.1285585 76.3859237,16.9690682 76.3859237,15.5387644 C76.3859237,14.1084606 77.545414,12.9489703 78.9757178,12.9489703 Z" id="Rectangle-3-Copy-16" fill="#FF9900"></path>
            </g>
            <rect id="Rectangle-3-Copy-38" fill="#FFFFFF" x="122.999997" y="157.499996" width="19.7999995" height="8.09999979" rx="4.04999989"></rect>
            <rect id="Rectangle-3-Copy-39" fill="#FFFFFF" x="122.999997" y="27.8999993" width="19.7999995" height="8.09999979" rx="4.04999989"></rect>
            <rect id="Rectangle-3-Copy-40" fill="#FFFFFF" x="97.7999978" y="157.499996" width="19.7999995" height="8.09999979" rx="4.04999989"></rect>
            <rect id="Rectangle-3-Copy-41" fill="#FFFFFF" x="97.7999978" y="27.8999993" width="19.7999995" height="8.09999979" rx="4.04999989"></rect>
            <rect id="Rectangle-3-Copy-42" fill="#E6F0FA" x="157.199996" y="165.599996" width="19.7999995" height="8.09999979" rx="4.04999989"></rect>
            <rect id="Rectangle-3-Copy-43" fill="#E6F0FA" x="157.199996" y="35.999999" width="19.7999995" height="8.09999979" rx="4.04999989"></rect>
            <path d="M48.7499991,201.599995 L60.4499988,201.599995 C62.686752,201.599995 64.4999987,203.413241 64.4999987,205.649995 C64.4999987,207.886748 62.686752,209.699994 60.4499988,209.699994 L48.7499991,209.699994 C46.5132459,209.699994 44.6999992,207.886748 44.6999992,205.649995 C44.6999992,203.413241 46.5132459,201.599995 48.7499991,201.599995 Z" id="Rectangle-3-Copy-44" fill="#E6F0FA"></path>
            <path d="M48.7499991,71.9999981 L60.4499988,71.9999981 C62.686752,71.9999981 64.4999987,73.8132448 64.4999987,76.049998 C64.4999987,78.2867512 62.686752,80.0999979 60.4499988,80.0999979 L48.7499991,80.0999979 C46.5132459,80.0999979 44.6999992,78.2867512 44.6999992,76.049998 C44.6999992,73.8132448 46.5132459,71.9999981 48.7499991,71.9999981 Z" id="Rectangle-3-Copy-45" fill="#E6F0FA"></path>
            <path d="M109.049998,138.599996 L120.749997,138.599996 C122.98675,138.599996 124.799997,140.413243 124.799997,142.649996 C124.799997,144.886749 122.98675,146.699996 120.749997,146.699996 L109.049998,146.699996 C106.813244,146.699996 104.999998,144.886749 104.999998,142.649996 C104.999998,140.413243 106.813244,138.599996 109.049998,138.599996 Z" id="Rectangle-3-Copy-46" fill="#E6F0FA"></path>
            <path d="M109.049998,8.99999976 L120.749997,8.99999976 C122.98675,8.99999976 124.799997,10.8132465 124.799997,13.0499997 C124.799997,15.2867528 122.98675,17.0999995 120.749997,17.0999995 L109.049998,17.0999995 C106.813244,17.0999995 104.999998,15.2867528 104.999998,13.0499997 C104.999998,10.8132465 106.813244,8.99999976 109.049998,8.99999976 Z" id="Rectangle-3-Copy-47" fill="#E6F0FA"></path>
            <g id="Group-12-Copy-4" transform="translate(43.799999, 147.599996)">
                <circle id="Oval-2-Copy" fill="#B1D8FF" cx="15.2999996" cy="15.2999996" r="15.2999996"></circle>
                <polyline id="Path-4" stroke="#FFFFFF" stroke-width="2.69999993" stroke-linecap="round" points="16.1999996 6.29999983 16.1999996 17.0999995 24.2999994 17.0999995"></polyline>
            </g>
            <g id="Group-12-Copy-5" transform="translate(43.799999, 18.000000)" fill="#B1D8FF">
                <circle id="Oval-2-Copy" cx="15.2999996" cy="15.2999996" r="15.2999996"></circle>
            </g>
            <path d="M59.5499763,36.8759442 L57.2223703,38.4334506 C56.5283578,38.8978457 55.5892829,38.711704 55.1248879,38.0176915 C54.8913374,37.6686634 54.8134712,37.2382236 54.909944,36.8294946 L55.617711,33.8308796 L55.617711,33.8308796 L53.2848747,31.7534447 C52.6612522,31.198097 52.6059045,30.2423528 53.1612522,29.6187303 C53.4229609,29.3248469 53.7889356,29.144575 54.1814331,29.1162093 L57.1197027,28.9038615 L57.1197027,28.9038615 L58.1350694,26.2089032 C58.4294857,25.4274717 59.3016326,25.0326679 60.0830641,25.3270841 C60.4901793,25.480471 60.8114963,25.801788 60.9648832,26.2089032 L61.9802499,28.9038615 L61.9802499,28.9038615 L64.9185195,29.1162093 C65.7514018,29.1764015 66.377791,29.9003814 66.3175989,30.7332637 C66.2892332,31.1257613 66.1089613,31.491736 65.8150779,31.7534447 L63.4822416,33.8308796 L63.4822416,33.8308796 L64.1900086,36.8294946 C64.3818365,37.6422172 63.8785019,38.4565664 63.0657793,38.6483944 C62.6570502,38.7448672 62.2266104,38.667001 61.8775823,38.4334506 L59.5499763,36.8759442 L59.5499763,36.8759442 Z" id="Star-2-Copy-3" fill="#FFFFFF"></path>
        </g>
        <g id="Group-4" transform="translate(843.000000, 63.000000)">
            <g id="Group-2" transform="translate(0.000000, 129.599997)">
                <path d="M15.2999996,42.2999989 L29.6999992,42.2999989 L29.6999992,82.7999978 C29.6999992,86.7764479 26.4764495,89.9999976 22.4999994,89.9999976 C18.5235493,89.9999976 15.2999996,86.7764479 15.2999996,82.7999978 L15.2999996,42.2999989 L15.2999996,42.2999989 Z" id="Rectangle-4-Copy" fill="#1B2653" transform="translate(22.499999, 66.149998) rotate(-315.000000) translate(-22.499999, -66.149998) "></path>
                <path d="M50.9024234,21.5999994 L141.299996,21.5999994 C146.767615,21.5999994 151.199996,26.0323803 151.199996,31.4999992 C151.199996,36.967618 146.767615,41.3999989 141.299996,41.3999989 L50.9024234,41.3999989 C50.1278856,41.3999989 49.4999987,40.772112 49.4999987,39.9975742 L49.4999987,23.0024241 C49.4999987,22.2278863 50.1278856,21.5999994 50.9024234,21.5999994 Z" id="Rectangle-5-Copy" fill="#E6F0FA"></path>
                <circle id="Oval-5-Copy" fill="#4F8DF9" cx="59.3999984" cy="33.2999991" r="33.2999991"></circle>
                <circle id="Oval-5-Copy-2" fill="#FFFFFF" cx="59.3999984" cy="33.2999991" r="23.3999994"></circle>
                <g id="Group-5" transform="translate(69.299998, 48.599999)">
                    <path d="M30.5459761,0 L87.0933726,0 C93.1721636,-2.89301263e-15 98.0999974,4.92783377 98.0999974,11.0066248 C98.0999974,17.0854158 93.1721636,22.0132496 87.0933726,22.0132496 L30.5459761,22.0132496 C24.4671851,22.0132496 19.5393513,17.0854158 19.5393513,11.0066248 C19.5393513,4.92783377 24.4671851,4.66936947e-15 30.5459761,0 Z" id="Rectangle-3-Copy-10" fill="#FFC100"></path>
                    <path d="M19.1066246,13.5964189 L65.3792989,13.5964189 C71.4580899,13.5964189 76.3859237,18.5242526 76.3859237,24.6030437 C76.3859237,30.6818347 71.4580899,35.6096684 65.3792989,35.6096684 L19.1066246,35.6096684 C13.0278336,35.6096684 8.09999979,30.6818347 8.09999979,24.6030437 C8.09999979,18.5242526 13.0278336,13.5964189 19.1066246,13.5964189 Z" id="Rectangle-3-Copy-11" fill="#FF9900"></path>
                    <path d="M67.663375,13.5964189 C72.3118623,13.5964189 76.0802057,17.3647623 76.0802057,22.0132496 L30.8862419,22.0132496 C25.6996117,22.0132496 21.3508876,18.4257473 20.1861181,13.5967913 L67.663375,13.5964189 Z" id="Combined-Shape" fill="#FF8100"></path>
                    <path d="M29.8809507,4.53213962 L44.7268597,4.53213962 C46.1571634,4.53213962 47.3166537,5.69162992 47.3166537,7.12193369 C47.3166537,8.55223746 46.1571634,9.71172776 44.7268597,9.71172776 L29.8809507,9.71172776 C28.4506469,9.71172776 27.2911566,8.55223746 27.2911566,7.12193369 C27.2911566,5.69162992 28.4506469,4.53213962 29.8809507,4.53213962 Z" id="Rectangle-3-Copy-11" fill="#FF9900"></path>
                    <path d="M52.4903829,4.53213962 L67.3362919,4.53213962 C68.7665956,4.53213962 69.9260859,5.69162992 69.9260859,7.12193369 C69.9260859,8.55223746 68.7665956,9.71172776 67.3362919,9.71172776 L52.4903829,9.71172776 C51.0600791,9.71172776 49.9005888,8.55223746 49.9005888,7.12193369 C49.9005888,5.69162992 51.0600791,4.53213962 52.4903829,4.53213962 Z" id="Rectangle-3-Copy-14" fill="#FF9900"></path>
                    <path d="M75.0998151,4.53213962 L84.7778539,4.53213962 C86.2081576,4.53213962 87.3676479,5.69162992 87.3676479,7.12193369 C87.3676479,8.55223746 86.2081576,9.71172776 84.7778539,9.71172776 L75.0998151,9.71172776 C73.6695114,9.71172776 72.5100211,8.55223746 72.5100211,7.12193369 C72.5100211,5.69162992 73.6695114,4.53213962 75.0998151,4.53213962 Z" id="Rectangle-3-Copy-15" fill="#FF9900"></path>
                    <path d="M78.9757178,12.9489703 L85.4238377,12.9489703 C86.8541414,12.9489703 88.0136317,14.1084606 88.0136317,15.5387644 C88.0136317,16.9690682 86.8541414,18.1285585 85.4238377,18.1285585 L78.9757178,18.1285585 C77.545414,18.1285585 76.3859237,16.9690682 76.3859237,15.5387644 C76.3859237,14.1084606 77.545414,12.9489703 78.9757178,12.9489703 Z" id="Rectangle-3-Copy-16" fill="#FF9900"></path>
                </g>
                <rect id="Rectangle-3-Copy-11" fill="#FFFFFF" x="123.299997" y="27.8999993" width="19.7999995" height="8.09999979" rx="4.04999989"></rect>
                <rect id="Rectangle-3-Copy-19" fill="#FFFFFF" x="98.0999974" y="27.8999993" width="19.7999995" height="8.09999979" rx="4.04999989"></rect>
                <rect id="Rectangle-3-Copy-20" fill="#E6F0FA" x="157.499996" y="35.999999" width="19.7999995" height="8.09999979" rx="4.04999989"></rect>
                <path d="M49.0499987,71.9999981 L60.7499984,71.9999981 C62.9867516,71.9999981 64.7999983,73.8132448 64.7999983,76.049998 C64.7999983,78.2867512 62.9867516,80.0999979 60.7499984,80.0999979 L49.0499987,80.0999979 C46.8132455,80.0999979 44.9999988,78.2867512 44.9999988,76.049998 C44.9999988,73.8132448 46.8132455,71.9999981 49.0499987,71.9999981 Z" id="Rectangle-3-Copy-22" fill="#E6F0FA"></path>
                <path d="M109.349997,8.99999976 L121.049997,8.99999976 C123.28675,8.99999976 125.099997,10.8132465 125.099997,13.0499997 C125.099997,15.2867528 123.28675,17.0999995 121.049997,17.0999995 L109.349997,17.0999995 C107.113244,17.0999995 105.299997,15.2867528 105.299997,13.0499997 C105.299997,10.8132465 107.113244,8.99999976 109.349997,8.99999976 Z" id="Rectangle-3-Copy-21" fill="#E6F0FA"></path>
                <g id="Group-12-Copy-2" transform="translate(44.099999, 18.000000)">
                    <circle id="Oval-2-Copy" fill="#FFC100" cx="15.2999996" cy="15.2999996" r="15.2999996"></circle>
                    <polyline id="Path-4" stroke="#FFFFFF" stroke-width="2.69999993" stroke-linecap="round" points="16.1999996 6.29999983 16.1999996 17.0999995 24.2999994 17.0999995"></polyline>
                </g>
            </g>
            <g id="Group-3">
                <path d="M15.2999996,42.2999989 L29.6999992,42.2999989 L29.6999992,82.7999978 C29.6999992,86.7764479 26.4764495,89.9999976 22.4999994,89.9999976 C18.5235493,89.9999976 15.2999996,86.7764479 15.2999996,82.7999978 L15.2999996,42.2999989 L15.2999996,42.2999989 Z" id="Rectangle-4-Copy-5" fill="#1B2653" transform="translate(22.499999, 66.149998) rotate(-315.000000) translate(-22.499999, -66.149998) "></path>
                <path d="M50.9024234,21.5999994 L141.299996,21.5999994 C146.767615,21.5999994 151.199996,26.0323803 151.199996,31.4999992 C151.199996,36.967618 146.767615,41.3999989 141.299996,41.3999989 L50.9024234,41.3999989 C50.1278856,41.3999989 49.4999987,40.772112 49.4999987,39.9975742 L49.4999987,23.0024241 C49.4999987,22.2278863 50.1278856,21.5999994 50.9024234,21.5999994 Z" id="Rectangle-5-Copy-2" fill="#E6F0FA"></path>
                <circle id="Oval-5-Copy-9" fill="#4F8DF9" cx="59.3999984" cy="33.2999991" r="33.2999991"></circle>
                <circle id="Oval-5-Copy-10" fill="#FFFFFF" cx="59.3999984" cy="33.2999991" r="23.3999994"></circle>
                <g id="Group-5-Copy" transform="translate(69.299998, 48.599999)">
                    <path d="M30.5459761,0 L87.0933726,0 C93.1721636,-2.89301263e-15 98.0999974,4.92783377 98.0999974,11.0066248 C98.0999974,17.0854158 93.1721636,22.0132496 87.0933726,22.0132496 L30.5459761,22.0132496 C24.4671851,22.0132496 19.5393513,17.0854158 19.5393513,11.0066248 C19.5393513,4.92783377 24.4671851,4.66936947e-15 30.5459761,0 Z" id="Rectangle-3-Copy-10" fill="#FFC100"></path>
                    <path d="M19.1066246,13.5964189 L65.3792989,13.5964189 C71.4580899,13.5964189 76.3859237,18.5242526 76.3859237,24.6030437 C76.3859237,30.6818347 71.4580899,35.6096684 65.3792989,35.6096684 L19.1066246,35.6096684 C13.0278336,35.6096684 8.09999979,30.6818347 8.09999979,24.6030437 C8.09999979,18.5242526 13.0278336,13.5964189 19.1066246,13.5964189 Z" id="Rectangle-3-Copy-11" fill="#FF9900"></path>
                    <path d="M67.663375,13.5964189 C72.3118623,13.5964189 76.0802057,17.3647623 76.0802057,22.0132496 L30.8862419,22.0132496 C25.6996117,22.0132496 21.3508876,18.4257473 20.1861181,13.5967913 L67.663375,13.5964189 Z" id="Combined-Shape" fill="#FF8100"></path>
                    <path d="M29.8809507,4.53213962 L44.7268597,4.53213962 C46.1571634,4.53213962 47.3166537,5.69162992 47.3166537,7.12193369 C47.3166537,8.55223746 46.1571634,9.71172776 44.7268597,9.71172776 L29.8809507,9.71172776 C28.4506469,9.71172776 27.2911566,8.55223746 27.2911566,7.12193369 C27.2911566,5.69162992 28.4506469,4.53213962 29.8809507,4.53213962 Z" id="Rectangle-3-Copy-11" fill="#FF9900"></path>
                    <path d="M52.4903829,4.53213962 L67.3362919,4.53213962 C68.7665956,4.53213962 69.9260859,5.69162992 69.9260859,7.12193369 C69.9260859,8.55223746 68.7665956,9.71172776 67.3362919,9.71172776 L52.4903829,9.71172776 C51.0600791,9.71172776 49.9005888,8.55223746 49.9005888,7.12193369 C49.9005888,5.69162992 51.0600791,4.53213962 52.4903829,4.53213962 Z" id="Rectangle-3-Copy-14" fill="#FF9900"></path>
                    <path d="M75.0998151,4.53213962 L84.7778539,4.53213962 C86.2081576,4.53213962 87.3676479,5.69162992 87.3676479,7.12193369 C87.3676479,8.55223746 86.2081576,9.71172776 84.7778539,9.71172776 L75.0998151,9.71172776 C73.6695114,9.71172776 72.5100211,8.55223746 72.5100211,7.12193369 C72.5100211,5.69162992 73.6695114,4.53213962 75.0998151,4.53213962 Z" id="Rectangle-3-Copy-15" fill="#FF9900"></path>
                    <path d="M78.9757178,12.9489703 L85.4238377,12.9489703 C86.8541414,12.9489703 88.0136317,14.1084606 88.0136317,15.5387644 C88.0136317,16.9690682 86.8541414,18.1285585 85.4238377,18.1285585 L78.9757178,18.1285585 C77.545414,18.1285585 76.3859237,16.9690682 76.3859237,15.5387644 C76.3859237,14.1084606 77.545414,12.9489703 78.9757178,12.9489703 Z" id="Rectangle-3-Copy-16" fill="#FF9900"></path>
                </g>
                <rect id="Rectangle-3-Copy-27" fill="#FFFFFF" x="123.299997" y="27.8999993" width="19.7999995" height="8.09999979" rx="4.04999989"></rect>
                <rect id="Rectangle-3-Copy-28" fill="#FFFFFF" x="98.0999974" y="27.8999993" width="19.7999995" height="8.09999979" rx="4.04999989"></rect>
                <rect id="Rectangle-3-Copy-35" fill="#E6F0FA" x="157.499996" y="35.999999" width="19.7999995" height="8.09999979" rx="4.04999989"></rect>
                <path d="M49.0499987,71.9999981 L60.7499984,71.9999981 C62.9867516,71.9999981 64.7999983,73.8132448 64.7999983,76.049998 C64.7999983,78.2867512 62.9867516,80.0999979 60.7499984,80.0999979 L49.0499987,80.0999979 C46.8132455,80.0999979 44.9999988,78.2867512 44.9999988,76.049998 C44.9999988,73.8132448 46.8132455,71.9999981 49.0499987,71.9999981 Z" id="Rectangle-3-Copy-36" fill="#E6F0FA"></path>
                <path d="M109.349997,8.99999976 L121.049997,8.99999976 C123.28675,8.99999976 125.099997,10.8132465 125.099997,13.0499997 C125.099997,15.2867528 123.28675,17.0999995 121.049997,17.0999995 L109.349997,17.0999995 C107.113244,17.0999995 105.299997,15.2867528 105.299997,13.0499997 C105.299997,10.8132465 107.113244,8.99999976 109.349997,8.99999976 Z" id="Rectangle-3-Copy-37" fill="#E6F0FA"></path>
                <g id="Group-12-Copy-3" transform="translate(44.099999, 18.000000)" fill="#FFC100">
                    <circle id="Oval-2-Copy" cx="15.2999996" cy="15.2999996" r="15.2999996"></circle>
                </g>
                <path d="M59.8499759,36.8759442 L57.5223699,38.4334506 C56.8283574,38.8978457 55.8892825,38.711704 55.4248874,38.0176915 C55.191337,37.6686634 55.1134708,37.2382236 55.2099436,36.8294946 L55.9177106,33.8308796 L55.9177106,33.8308796 L53.5848743,31.7534447 C52.9612518,31.198097 52.9059041,30.2423528 53.4612517,29.6187303 C53.7229605,29.3248469 54.0889352,29.144575 54.4814327,29.1162093 L57.4197023,28.9038615 L57.4197023,28.9038615 L58.435069,26.2089032 C58.7294853,25.4274717 59.6016322,25.0326679 60.3830637,25.3270841 C60.7901789,25.480471 61.1114959,25.801788 61.2648828,26.2089032 L62.2802495,28.9038615 L62.2802495,28.9038615 L65.2185191,29.1162093 C66.0514014,29.1764015 66.6777906,29.9003814 66.6175985,30.7332637 C66.5892328,31.1257613 66.4089609,31.491736 66.1150775,31.7534447 L63.7822412,33.8308796 L63.7822412,33.8308796 L64.4900082,36.8294946 C64.6818361,37.6422172 64.1785015,38.4565664 63.3657789,38.6483944 C62.9570498,38.7448672 62.52661,38.667001 62.1775819,38.4334506 L59.8499759,36.8759442 L59.8499759,36.8759442 Z" id="Star-2-Copy-2" fill="#FFFFFF"></path>
            </g>
        </g>
    </g>
</svg>