<?xml version="1.0" encoding="UTF-8"?>
<svg width="1240px" height="410px" viewBox="0 0 1240 410" version="1.1" xmlns="http://www.w3.org/2000/svg" xmlns:xlink="http://www.w3.org/1999/xlink">
    <!-- Generator: Sketch 61 (89581) - https://sketch.com -->
    <title>Artboard Copy 5</title>
    <desc>Created with Sketch.</desc>
    <g id="Artboard-Copy-5" stroke="none" stroke-width="1" fill="none" fill-rule="evenodd">
        <g id="Group" transform="translate(222.000000, 86.000000)">
            <path d="M172.758685,41.7320059 C173.66722,28.3078385 177.960061,13.4818613 163.294294,6.12570122 C159.217599,4.0809589 153.984828,4.67344414 151.352805,6.15736625 C144.563183,9.98558429 145.331525,18.9379991 144.921573,17.5353465 C142.813371,10.3206557 131.966133,9.17144382 128.409877,12.6324438 C121.332624,19.52013 125.304749,28.5223901 123.961146,27.7388311 C114.609899,22.2843789 110.012402,26.4344244 107.021143,30.9704703 C104.582202,34.6690182 104.318722,45.912392 104.455292,45.9221444 C131.054458,47.8362534 162.192919,46.3026064 171.961241,46.2076113 L172.758685,41.7320059 Z" id="Fill-3" fill="#B1D8FF"></path>
            <path d="M142.640065,77.1081739 C142.650137,76.4898131 136.055344,77.5924251 135.650903,76.8486725 C135.117684,75.8678697 147.39527,59.4008194 148.653317,60.124151 C150.450698,61.1576184 163.584887,74.3689001 164.411755,75.9574353 C164.942336,76.9766916 158.142265,76.0235944 158.163728,77.1695561 C158.443467,92.1692834 158.387951,105.483506 158.149459,107.519749 C158.081712,108.098224 145.395009,107.726467 143.813098,108.181818 L142.640065,77.1081739 Z" id="Fill-4" fill="#FFC100"></path>
            <path d="M625.415465,177.89899 L688.967987,178.484455 C689.177058,189.969876 682.690549,213.304868 671.60701,217.749489 C665.815513,220.071923 661.806369,220.892902 655.633405,221.170498 C647.074764,221.284605 636.529526,213.365925 631.888704,207.002346 C628.019503,201.545847 624.886092,184.53763 625.415465,177.89899 Z" id="Fill-5" fill="#4F8DF9"></path>
            <path d="M133.861666,107.068017 C115.049928,105.374809 115.602092,128.616162 134.449098,128.616162 C135.414996,128.616162 137.534766,125.458384 136.602936,124.47232 C134.16324,121.890646 127.704727,124.610594 125.833629,118.670846 C122.937974,109.478687 133.320178,114.441739 134.84064,113.905363 C135.284962,113.748707 134.449098,107.704601 134.449098,107.068017" id="Fill-6" fill="#1B2653"></path>
            <path d="M170.180864,98.2534017 C162.135828,96.9069741 130.991579,97.2455573 129.63253,98.2296863 C134.190731,133.367786 135.489753,139.737138 135.647415,139.778975 C154.042034,144.649027 165.15632,139.41169 165.621951,138.972286 C165.621951,138.972286 171.768161,98.519136 170.180864,98.2534017 Z" id="Fill-7" fill="#1B2653"></path>
            <path d="M149.793502,230.234384 C152.397219,231.318617 153.41293,231.599754 155.225223,231.788122 C170.628882,233.389216 158.996336,214.464241 170.873929,214.993109 C175.323061,215.191229 178.505916,218.449817 182.040141,220.761299 C189.030709,225.333187 197.046468,227.56453 203.550781,220.946032 C209.56788,214.823381 200.678376,207.670581 200.370686,201.50879 C200.041397,194.913382 210.361104,192.998993 212.833177,187.281494 C214.078694,184.400913 213.94345,181.73984 212.170517,179.115231 C209.461797,175.105089 204.53337,172.675997 199.736828,173.493691 C194.409269,174.401827 186.099262,178.709203 181.181876,174.635248 C178.757083,172.626338 177.761174,167.656962 177.033232,164.736319 C174.991971,156.546066 169.009433,150.30319 160.417778,150.252525 C156.585944,150.2305 152.038889,151.131799 149.669658,154.561147 C144.855115,161.529716 145.810343,171.898247 135.395954,173.361747 C126.52817,174.608019 116.754119,167.457847 106.533535,172.318669 C104.287068,173.387176 101.871396,174.555002 100.817885,176.99153 C99.7608935,179.436335 100.053102,181.232335 100.64448,183.730637 C102.312529,190.778733 111.713969,193.278954 110.134962,200.192587 C108.221145,208.571879 92.7934862,213.576161 96.6363606,224.30659 C97.2681794,226.070875 98.4815354,227.977347 99.8573764,229.244647 C102.266208,231.463455 105.415582,231.720758 108.490553,231.940469 C111.965857,232.188812 115.462761,231.53798 118.1248,229.152226 C123.552801,224.287482 125.777307,214.636068 134.207198,214.23503 C135.709403,214.163564 141.892827,220.082482 143.450233,222.338307 C145.007639,224.594132 147.189784,229.150139 149.793502,230.234384 Z" id="Fill-8" fill="#B1D8FF"></path>
            <path d="M67.9556754,83.0665932 C61.7949079,88.4784947 59.6152939,93.4324623 59.0312136,98.1606258 C58.3007857,104.07259 59.2823503,110.193054 64.0877656,114.330212 C89.7339534,136.410569 111.90781,109.112488 104.001589,92.8480209 C95.1732239,74.6866554 73.0113939,78.6254589 67.9556754,83.0665932 Z" id="Fill-9" fill="#1B2653"></path>
            <path d="M182.232228,138.232323 C186.203316,138.27345 190.39925,138.248702 194.370577,138.417155 C195.715232,168.836845 195.662995,180.503573 195.642554,192.169225 C191.648993,192.321537 192.231012,192.324765 186.751386,192.323232 C175.09082,192.319027 163.422006,191.953429 151.768493,191.57731 C128.76652,190.834996 105.762875,189.729117 82.7503831,189.310557 C82.5839897,176.49228 82.4587165,163.672568 82.5598436,150.855248 C82.5853046,147.627754 80.0535433,138.478127 83.1985216,138.478127 L182.232228,138.232323 Z" id="Fill-10" fill="#FF9900"></path>
            <path d="M362.197322,35.690811 C408.9974,33.854301 415.244971,33.8260714 415.265062,33.297531 C415.670521,22.657431 413.041455,15.1371251 401.997128,16.2907487 C399.152383,16.5878312 396.272297,20.4697012 396.264066,20.1232475 C396.023696,9.95583992 389.495451,6.84240054 384.87044,7.20840717 C377.446919,7.79597308 377.022821,13.884637 377.031536,13.8199901 C377.34271,11.5144538 377.4963,9.22199357 376.210573,7.27867556 C372.318292,1.39568416 365.072325,-1.20204638 359.654916,0.526678095 C346.630015,4.68290031 351.014776,20.9477706 351.948178,32.0886703 C352.02697,33.0303889 351.803787,35.3133171 352.462445,36.0606061 L362.197322,35.690811 Z" id="Fill-11" fill="#B1D8FF"></path>
            <path d="M391.815446,194.329358 C391.566927,182.773905 390.881648,112.98583 391.657286,112.989899 C398.896454,113.027716 412.395515,113.071277 412.901864,113.216322 C413.451304,113.373693 415.217916,185.722066 415.304217,194.727273 L391.815446,194.329358 Z" id="Fill-12" fill="#1B2653"></path>
            <path d="M82.844916,98.5656566 C82.3895225,174.803262 85.4364364,188.856032 83.1789033,188.716143 C50.8018136,186.710158 29.592063,187.433971 0,184.537883 L82.844916,98.5656566 Z" id="Fill-13" fill="#B1D8FF"></path>
            <line x1="241.260542" y1="195.295588" x2="298.875" y2="194.727273" id="Stroke-14" stroke="#DEEFFF" stroke-width="2.4000001"></line>
            <path d="M630.948378,48.0808081 L630.903132,48.0774076 C629.403797,46.1108308 628.053691,44.0373815 626.686394,41.9860354 C623.096776,42.0366784 602.486679,40.5591651 598.896346,40.5439843 C597.580741,40.5383978 595.782709,40.5222455 594.433797,40.4669875 C593.963785,40.4476776 593.493773,40.4212023 593.025194,40.3810037 C593.013613,40.3800321 592.290986,40.3531925 592.174587,40.1818321 C591.443245,28.4360507 591.775608,2.166044 592.260424,1.73794649 C608.287037,0.350181862 644.999794,2.10192046 652.064063,2.05103454 L652.963855,41.518225 C647.379462,41.5919428 641.796263,41.7207971 636.212466,41.8236619 L635.73541,42.561447 C634.662154,43.8281299 632.213961,47.4009528 630.948378,48.0808081 Z" id="Fill-15" fill="#B1D8FF"></path>
            <path d="M232.858434,193.397083 C243.462715,169.444909 315.658014,63.3131798 332.346836,60.1368984 C345.181959,57.6940392 412.670362,180.725224 421.305723,195.929293 L232.858434,193.397083 Z" id="Fill-16" fill="#4F8DF9"></path>
            <path d="M332.975603,25.2424242 C341.385502,25.3631967 363.314273,25.2038798 363.649158,25.2559732 C363.838592,25.2854071 363.344869,45.2778116 363.042492,45.4065265 C361.060311,46.2505324 339.961343,44.8488005 332.483434,44.8398068 L332.975603,25.2424242 Z" id="Fill-17" fill="#FF9900"></path>
            <path d="M502.861399,87.7474747 L457.319038,86.7265475 C457.140344,78.0826415 462.572854,70.4822742 470.842172,67.2249403 C475.163002,65.5228453 479.654695,65.0695578 484.264568,64.9090909 C490.656524,64.8904333 495.551289,68.7755862 499.029904,73.6001713 C501.93043,77.736287 503.243706,82.7564841 502.861399,87.7474747 Z" id="Fill-18" fill="#FFC100"></path>
            <path d="M334.010244,61.3030303 C333.585457,54.6671771 333.67572,36.8150507 333.734295,25.2424242" id="Stroke-19" stroke="#FFC100" stroke-width="2.4000001" stroke-linecap="round" stroke-linejoin="round"></path>
            <path d="M382.56731,186.75509 C380.155318,163.677153 346.823525,141.938057 319.330843,155.799032 C298.789007,166.155642 291.460376,199.524629 303.459678,218.346137 C313.164474,233.56866 342.66122,242.09243 361.617669,229.526235 C376.270484,219.812905 384.704797,207.207744 382.56731,186.75509 Z" id="Fill-20" fill="#4F8DF9"></path>
            <path d="M241.13209,80.8781528 C210.856886,83.6094104 190.661495,112.531905 211.189067,155.163497 C216.15631,165.479719 227.194386,167.576661 232.230633,194.585671 C233.688847,202.405823 222.084214,235.23758 250.447335,235.59596 C270.506517,235.846868 264.305834,203.931917 266.435012,192.825226 C268.277132,183.21553 268.478625,171.311902 274.672107,163.843695 C297.424383,136.408615 291.062291,110.449932 283.4988,97.3678451 C275.1819,82.9828785 258.778036,79.2863163 241.13209,80.8781528 Z" id="Fill-21" fill="#FFC100"></path>
            <path d="M240.965439,194.727273 C240.639734,178.170005 237.273231,147.544009 234.810077,131.700514 C233.016475,120.164247 224.508128,123.976487 223.488482,128.584501 C220.957087,140.023848 239.785643,144.897438 246.673633,131.211735 C247.689074,129.194312 248.13312,124.422894 246.073042,123.337433 C237.586441,118.865729 233.625956,137.596065 250.336286,138.443999 C259.681303,138.918216 266.681025,121.947366 257.567282,121.415976 C251.087175,121.038082 250.946248,129.733222 255.506964,133.397456 C262.968993,139.392553 278.688751,137.631873 278.46757,126.81845 C278.311865,119.211992 266.571695,119.868353 265.757732,130.113861 C264.171255,150.081245 261.396692,174.135755 259.62784,194.304141" id="Stroke-22" stroke="#FFFFFF" stroke-width="2.4000001" stroke-linecap="round" stroke-linejoin="round"></path>
            <path d="M232.595928,194.727273 C243.883617,195.049671 255.177747,194.872437 266.466867,195.08753 C265.076212,205.924783 268.883222,228.654619 258.363375,235.904758 C256.056627,237.494458 253.529355,237.893382 250.830695,238 C222.758647,237.624732 234.235018,203.800134 232.789618,195.742335 L232.595928,194.727273 Z" id="Fill-23" fill="#1B2653"></path>
            <path d="M337.292673,150.252525 C357.395248,151.072193 378.377811,164.865032 381.41034,186.431206 C381.818795,192.151147 381.713187,188.986485 381.557642,195.929293 C353.692991,194.01597 325.598486,194.274273 297.674699,194.376098 C298.498896,178.983374 305.526017,162.434742 319.054248,154.705685 C323.119563,152.584007 327.515321,151.184997 332.045837,150.584543 C333.783473,150.35423 335.543688,150.363158 337.292673,150.252525 Z" id="Fill-26" fill="#1B2653"></path>
            <path d="M744.925546,142.965583 C738.764778,148.377485 736.585163,153.331452 736.001083,158.059616 C735.270655,163.97158 736.252338,170.092044 741.057636,174.229202 C766.703829,196.309559 788.877691,169.011478 780.971468,152.747011 C772.143101,134.585645 749.981266,138.524449 744.925546,142.965583 Z" id="Fill-24" fill="#1B2653"></path>
            <path d="M382.508212,192.323232 L382.890032,192.358294 C383.148496,208.750579 375.111382,220.424054 362.21846,229.585859 C358.142163,223.631484 353.716038,217.899914 349.835922,211.808522 C346.17392,205.867944 341.913803,200.116891 338.48494,194.10896 L382.508212,192.323232 Z" id="Fill-25" fill="#FF9900"></path>
            <path d="M337.915396,150.252525 C358.279479,151.072191 379.534997,164.864994 382.606975,186.43111 C383.020744,192.151036 382.913641,188.986383 382.756193,195.929293 C353.801486,194.26728 368.892594,195.262244 338.482376,194.383582 C337.798854,179.81153 337.473551,164.867527 337.284639,150.281239 L337.915396,150.252525 Z" id="Fill-27" fill="#FFC100"></path>
            <path d="M337.917148,150.252525 C344.407772,150.533265 350.772064,152.090649 356.739643,154.697313 C358.732678,155.567863 360.573776,156.760491 362.490964,157.792019 L338.485703,194.727273 C337.800403,180.041734 337.474076,164.981348 337.284639,150.281463 L337.917148,150.252525 Z" id="Fill-28" fill="#FFFFFF"></path>
            <path d="M721.536999,126.010101 C720.821486,183.417015 722.687261,196.996491 724.697074,196.929293 C753.521445,195.960128 770.639363,196.26202 797,194.576428 L721.536999,126.010101 Z" id="Fill-29" fill="#FFC100"></path>
            <path d="M422.883265,195.635225 C422.760282,179.317832 422.103902,80.6337944 422.876135,80.6306583 C430.084204,80.6014686 445.764028,80.4316377 446.26677,80.6306583 C446.81217,80.846686 446.279366,183.21188 446.268196,195.929293 L422.883265,195.635225 Z" id="Fill-30" fill="#1B2653"></path>
            <path d="M334.913738,58.8989899 C342.584657,61.954207 348.017718,72.6250276 352.602406,79.0129492 C358.155527,86.7500946 363.436464,94.7025873 368.49247,102.747695 C365.875869,105.937192 362.093146,108.634568 358.024377,105.964809 C354.220198,103.468614 351.210027,97.5769794 345.970075,98.0598145 C340.920939,98.922513 340.838971,105.594588 336.617114,107.272607 C330.344359,109.765945 327.518015,100.883018 322.668015,99.9946068 C316.77798,98.9159657 313.552763,107.045474 308.285326,108.115544 C301.96351,109.021812 299.531579,100.404112 296.474398,96.2879909 C303.907127,86.8097347 311.398319,77.3007657 319.911464,68.6862795 C323.454429,65.1012057 327.327559,60.3071397 332.480842,58.9224412 L334.913738,58.8989899 Z" id="Fill-31" fill="#B1D8FF"></path>
            <line x1="382.896084" y1="196.613723" x2="446.512048" y2="195.929293" id="Stroke-32" stroke="#DEEFFF" stroke-width="2.4000001"></line>
            <path d="M459.049679,195.875483 C457.149061,184.47569 456.92467,85.9733582 457.822234,85.9263049 C475.96174,84.9764328 547.805281,85.4307982 549.755112,85.6121341 C551.870421,85.8089132 549.479951,178.253081 550.938253,195.929293 L459.049679,195.875483 Z" id="Fill-33" fill="#FFC100"></path>
            <path d="M551.325504,174.796391 C551.370572,178.973563 551.427998,183.151094 551.572532,187.328987 C551.671635,190.194033 551.768072,193.067491 552.138554,195.929293 L496.037454,195.399997 L495.724398,174.292929 L551.325504,174.796391 Z" id="Fill-34" fill="#1B2653"></path>
            <path d="M501.971716,85.3434343 L506.527108,85.3470547 L506.527108,195.929293 L459.043929,195.901416 C457.149519,184.498735 456.925981,85.9714525 457.820613,85.924508 C472.527861,85.3388485 487.255159,85.3920683 501.971716,85.3434343 Z" id="Fill-36" fill="#4F8DF9"></path>
            <path d="M570.840642,14.5014517 C577.878988,14.8481812 584.503075,16.6626124 590.587568,19.9383642 L594.77035,22.6686189 C633.600475,51.1340343 608.960623,103.215105 574.951221,105.621505 C521.173664,109.426983 495.780133,42.6890018 544.449239,19.1201787 C550.680174,16.2007878 557.611538,14.7610173 564.569528,14.4579901 C566.65738,14.367094 568.75027,14.4870046 570.840642,14.5014517 Z M568.513516,38.3274326 C564.285278,38.095798 560.181415,38.8091218 556.398621,40.5380745 C534.052314,51.7917369 545.686863,83.6058618 570.37169,81.774335 C585.982491,80.6161619 597.308443,55.7749134 579.494532,42.2141749 L577.575549,40.9135778 C574.868105,39.1709004 571.693269,38.6988426 568.513516,38.3274326 Z" id="Fill-39" fill="#4F8DF9"></path>
            <path d="M567.70027,14.4242424 L570.836988,14.4855383 C577.875924,14.8323598 584.500564,16.647272 590.585685,19.9238924 L594.768696,22.654871 C633.602066,51.1278339 608.960156,103.222714 574.947912,105.629752 C546.714446,107.688884 521.333066,88.0256695 518.732868,61.5908851 C517.735633,51.4532199 520.414756,41.2827993 526.823373,33.0377198 C532.791307,39.3929833 539.244783,45.3975717 546.19148,50.8329152 C540.188042,66.7342001 551.993168,82.3801859 570.367998,81.7762588 C585.980223,80.6177786 597.307002,55.7698231 579.491602,42.2056095 L577.572339,40.9046675 C574.864789,39.1615281 571.689807,38.689345 568.509668,38.3178366 C566.074516,38.2524463 567.455699,38.2442574 564.367799,38.4269408 C565.363594,27.4003046 563.810288,45.0108898 565.427405,23.2651805 C565.646547,20.3177998 565.953011,17.3768015 566.215813,14.4326721 L567.70027,14.4242424 Z" id="Fill-40" fill="#1B2653"></path>
            <path d="M502.242272,85.3440032 C514.815199,85.3389491 527.388247,85.3665056 539.960815,85.469752 C543.247459,85.4967067 546.720675,85.4588016 550.007079,85.6100612 C550.490321,86.1019858 550.518055,88.2044579 550.551791,88.7584748 C550.613742,89.7734904 550.66789,90.7891077 550.702347,91.8053266 C550.841736,95.9189376 550.883757,99.7679346 550.910891,103.903206 C550.985688,115.285339 550.890721,126.668556 550.822167,138.050449 C547.516073,138.212177 547.997754,138.213501 543.462126,138.229746 C533.810619,138.264282 524.15371,137.945999 514.509527,137.617367 C495.473767,136.968889 476.438127,135.965666 457.392162,135.633063 C457.311121,123.127012 457.264058,110.619516 457.404408,98.1137058 C457.439706,94.9646906 457.479085,92.2885872 457.573453,89.2207972 C457.584138,88.8760409 457.600826,86.3267693 457.82774,85.9234104 C472.622859,85.3395508 487.437908,85.392618 502.242272,85.3440032 Z" id="Fill-41" fill="#FF9900"></path>
            <path d="M701.070718,195.50728 C700.766804,185.490625 701.223464,125.004098 702.01308,125.010101 C709.382097,125.06665 721.661969,125.144089 722.178051,125.271353 C722.738,125.409543 724.854578,188.123674 724.981928,195.929293 L701.070718,195.50728 Z" id="Fill-46" fill="#4F8DF9"></path>
            <path d="M701.083765,174.292929 L724.698553,174.920322 C724.791671,182.323904 724.943291,189.728471 724.981928,197.131313 L700.996497,196.779436 C700.938116,189.282374 701.015511,181.787528 701.083765,174.292929 Z" id="Fill-47" fill="#B1D8FF"></path>
            <path d="M548.537651,174.844435 C564.032245,175.49805 573.821018,171.933312 579.129695,163.507512 C583.62538,156.371923 585.786886,148.816572 585.786886,148.816572 C585.786886,148.816572 573.969347,145.235412 571.589004,144.345786 C586.731661,132.570883 601.834747,125.927572 602.384297,126.221477 C612.665423,147.155385 617.227298,160.034829 616.94227,160.549643 C616.384207,161.558174 601.774192,156.115655 601.774192,156.20783 C601.774192,156.581444 595.77543,168.482324 592.48077,173.687513 C587.665164,181.295604 583.709077,189.794041 568.050805,193.838113 C562.558305,195.256697 551.098339,196.020946 551.144265,195.9205 C550.954806,195.019367 548.537651,174.844435 548.537651,174.844435 Z" id="Fill-148" fill="#1B2653"></path>
            <path d="M742.959523,145.242424 L776.59488,175.335203 C770.713397,181.938839 761.326476,184.145968 752.822922,181.26624 C748.37962,179.76153 744.676788,177.209463 741.088584,174.361448 C736.255043,170.259469 735.267708,164.191167 736.00231,158.329472 C736.693671,153.356924 739.197401,148.742804 742.959523,145.242424 Z" id="Fill-149" fill="#FF9900"></path>
            <path d="M82.8207831,98.5656566 C82.7687825,106.579046 82.7617133,114.592671 82.798617,122.606061 C76.5417723,122.422984 70.7571266,119.489409 66.0165663,115.751568 L82.8207831,98.5656566 Z" id="Fill-150" fill="#4F8DF9"></path>
            <path d="M160.189265,150.252525 C168.817788,150.303944 174.826118,156.639786 176.876138,164.952002 C177.607204,167.916138 178.607387,172.959514 181.042464,174.998339 C185.981071,179.132961 194.326617,174.761442 199.677037,173.839661 C204.494283,173.009913 209.443737,175.475177 212.164081,179.545035 C213.944622,182.20885 214.080567,184.909428 212.829705,187.832904 C211.676945,190.327993 209.4165,191.952918 207.21776,193.525253 C172.764047,192.470415 138.318408,191.15762 103.859873,190.255561 C102.036067,188.537387 100.884633,186.563447 100.159473,184.229171 C99.5656781,181.693665 99.272095,179.870921 100.333622,177.38971 C101.391775,174.916898 103.817692,173.731682 106.073919,172.647263 C116.33824,167.714057 126.154233,174.970705 135.060069,173.705874 C145.519269,172.22058 144.559941,161.697649 149.395144,154.625308 C151.774541,151.144892 156.341109,150.230172 160.189265,150.252525 Z" id="Fill-151" fill="#FFC100"></path>
            <path d="M445.311747,67.3131313 C447.303016,68.4372797 449.266476,68.9656564 451.313253,69.7171717" id="Stroke-164" stroke="#FFC100" stroke-width="2.4000001" stroke-linecap="round" stroke-linejoin="round"></path>
            <path d="M458.51506,55.2929293 C459.501712,56.7055642 460.130961,58.529319 460.915663,60.1010101" id="Stroke-165" stroke="#FFC100" stroke-width="2.4000001" stroke-linecap="round" stroke-linejoin="round"></path>
            <path d="M476.912077,54.0909091 C476.877028,52.0455834 476.519578,50.1233449 476.519578,48.0808081" id="Stroke-166" stroke="#FFC100" stroke-width="2.4000001" stroke-linecap="round" stroke-linejoin="round"></path>
            <path d="M493.323795,56.4949495 C494.500214,54.873051 495.831459,53.3788137 496.924699,51.6868687" id="Stroke-167" stroke="#FFC100" stroke-width="2.4000001" stroke-linecap="round" stroke-linejoin="round"></path>
            <path d="M507.72741,64.9090909 C509.097731,64.3865648 510.138368,63.3136794 511.328313,62.5050505" id="Stroke-168" stroke="#FFC100" stroke-width="2.4000001" stroke-linecap="round" stroke-linejoin="round"></path>
            <path d="M33.5234168,174.292929 C43.4153834,176.603361 76.3277674,175.84541 83.8923189,176.222772 C85.0437744,176.280147 85.8277877,210.188835 84.6030611,212.757576 C37.6158576,211.921211 31.8187461,212.788654 31.2078313,212.105649 L33.5234168,174.292929 Z" id="Fill-169" fill="#4F8DF9"></path>
            <path d="M84.0210843,176.276452 C64.9520616,198.26598 60.3140784,203.068011 58.5106666,201.734441 C48.7968652,194.551544 38.5520799,180.078121 33.6084337,174.292929 C45.3371948,175.827382 59.1608952,176.057016 70.9680655,176.122871 C75.3153668,176.147076 79.6753537,176.092524 84.0210843,176.276452 Z" id="Fill-170" fill="#1B2653"></path>
            <path d="M684.728695,149.66905 C676.655666,138.246419 687.224609,138.870476 691.350656,132.178753 C694.133049,127.666229 692.275882,121.61673 695.84423,117.450011 C701.667176,110.65062 713.85966,115.390306 715.237369,123.433543 C716.534029,131.004409 708.639088,132.155585 704.594822,136.091118 C702.443976,138.183989 699.557586,163.408543 685.674672,149.899261 L684.728695,149.66905 Z" id="Fill-171" fill="#FFC100"></path>
            <path d="M668.56277,149.748068 C656.702571,152.720815 648.119889,142.040167 649.510784,131.218118 C650.441925,123.972729 657.49449,119.444106 656.480967,111.558287 C655.551985,104.32954 646.036005,100.917389 650.672521,91.8985762 C652.813485,87.7338093 658.785136,85.4764422 659.501508,80.5998875 C660.433128,74.2572535 653.705773,70.1171507 654.622284,63.8777229 C655.514812,57.8016052 662.980484,56.43083 665.774745,51.6750816 C671.257502,42.3431782 661.51788,22.9683019 684.594456,25.4620137 C692.421192,26.3078978 702.197868,34.208084 699.232009,42.8620829 C697.705969,47.3146779 692.344687,50.8598481 691.332364,55.2906524 C690.068699,60.8209265 695.910601,67.4008631 693.191047,72.6907216 C691.117476,76.7242657 683.631058,79.0237774 682.968048,83.5375538 C681.965318,90.364012 689.947584,95.1435863 687.847152,102.293432 C685.951894,108.745019 675.832861,110.326278 674.603732,116.303859 C672.461569,126.720984 684.860427,140.687231 672.280257,148.844116 L668.56277,149.748068 Z" id="Fill-172" fill="#FFC100"></path>
            <path d="M676.96988,173.090909 C682.021743,156.886021 691.57041,141.866546 703.376506,129.818182" id="Stroke-173" stroke="#FF8700" stroke-width="3.00000012" stroke-linecap="round" stroke-linejoin="round"></path>
            <path d="M686.572289,40.8686869 C664.492949,81.2761502 662.566265,126.933103 662.566265,171.888889" id="Stroke-174" stroke="#FF8700" stroke-width="3.00000012" stroke-linecap="round" stroke-linejoin="round"></path>
            <path d="M634.991406,158.536512 C616.022732,158.591864 630.407236,144.970912 615.175573,134.319739 C603.465397,126.131055 611.395076,121.833437 605.6002,114.26935 C601.769884,109.26945 594.036255,109.823927 590.173204,105.285691 C585.629176,99.9474373 589.916823,93.3262498 587.114423,87.839231 C583.875959,81.4985239 575.355145,78.6190367 573.948271,71.0437834 C572.42348,62.8339671 579.600858,50.8633596 589.907265,54.8992282 C598.419238,58.232575 599.052547,67.7950851 604.270264,74.0382964 C607.908832,78.3919869 615.487508,78.3070983 619.830349,81.8502051 C625.995222,86.8796421 623.138583,93.6331453 627.277848,99.0362361 C629.995663,102.583905 634.901684,103.617457 637.25225,107.759466 C640.905392,114.196948 634.242451,120.094002 637.25225,125.987093 C638.769634,128.958072 641.284231,131.430287 642.970903,134.319739 C647.758171,142.521511 647.296302,158.666667 634.326438,158.666667 L634.991406,158.536512 Z" id="Fill-175" fill="#FFC100"></path>
            <path d="M595.349398,81.7373737 C618.520837,106.173723 636.355873,139.329053 639.760542,173.090909" id="Stroke-176" stroke="#FF8700" stroke-width="3.00000012" stroke-linecap="round" stroke-linejoin="round"></path>
            <path d="M621.764825,170.978604 C652.365466,170.596255 651.489808,170.62047 658.004736,170.873864 C661.525814,171.010815 687.311121,170.715131 690.806638,171.173719 C691.824683,171.307309 691.21523,180.357058 690.940585,181.3945 C675.53248,181.862936 623.528197,180.758294 621.756024,179.666396 L621.764825,170.978604 Z" id="Fill-177" fill="#1B2653"></path>
            <path d="M193.248494,88.9494949 C196.007684,91.1214463 198.779043,92.2384238 201.650602,93.7575758" id="Stroke-178" stroke="#FFC100" stroke-width="2.4000001" stroke-linecap="round" stroke-linejoin="round"></path>
            <path d="M218.454819,67.3131313 C219.99057,69.8119777 220.87863,72.9767883 222.055723,75.7272727" id="Stroke-179" stroke="#FFC100" stroke-width="2.4000001" stroke-linecap="round" stroke-linejoin="round"></path>
            <path d="M243.697767,67.3131313 C243.846485,63.6397604 243.530805,60.1603445 243.728375,56.4949495" id="Stroke-180" stroke="#FFC100" stroke-width="2.4000001" stroke-linecap="round" stroke-linejoin="round"></path>
            <path d="M267.667169,72.1212121 C269.240163,69.6855452 270.99076,67.4593992 272.468373,64.9090909" id="Stroke-181" stroke="#FFC100" stroke-width="2.4000001" stroke-linecap="round" stroke-linejoin="round"></path>
            <path d="M734.584337,82.9050332 L708.177711,72.1212121 C708.453193,74.9661111 714.034626,102.81146 714.034626,102.81146 L720.226295,93.0712055 L729.01536,103.373737 L733.464396,99.4184101 L725.218782,88.9533126 L734.584337,82.9050332 Z" id="Fill-14-Copy-6" fill="#1B2653"></path>
            <path d="M288.072289,85.3434343 C290.306246,84.3488478 292.088839,82.1543872 294.073795,80.5353535" id="Stroke-182" stroke="#FFC100" stroke-width="2.4000001" stroke-linecap="round" stroke-linejoin="round"></path>
        </g>
    </g>
</svg>